<?xml version="1.0" standalone="no"?>
<!DOCTYPE svg PUBLIC "-//W3C//DTD SVG 1.1//EN" "http://www.w3.org/Graphics/SVG/1.1/DTD/svg11.dtd" >
<svg xmlns="http://www.w3.org/2000/svg" xmlns:xlink="http://www.w3.org/1999/xlink" version="1.1">
<metadata></metadata>
<defs>
<font id="titillium_webregular" horiz-adv-x="582" >
<font-face units-per-em="1000" ascent="800" descent="-200" />
<missing-glyph horiz-adv-x="228" />
<glyph horiz-adv-x="0" />
<glyph unicode="&#xd;" horiz-adv-x="346" />
<glyph unicode=" "  horiz-adv-x="228" />
<glyph unicode="&#x09;" horiz-adv-x="228" />
<glyph unicode="&#xa0;" horiz-adv-x="228" />
<glyph unicode="!" horiz-adv-x="256" d="M86 0v116h86v-116h-86zM93 237l-6 483h83l-6 -483h-71z" />
<glyph unicode="&#x22;" horiz-adv-x="387" d="M315 489h-70l-4 231h78zM142 489h-69l-4 231h78z" />
<glyph unicode="#" d="M557 181h-115v-181h-71v181h-160v-181h-71v181h-115v67h115v193h-115v67h115v185h71v-185h160v185h71v-185h115v-67h-115v-193h115v-67zM371 248v193h-160v-193h160z" />
<glyph unicode="$" d="M514 202q0 -211 -220 -211h-15l-15 -120q-53 3 -53 7l15 116l-149 18l8 64q80 -12 149 -16l34 260q-106 25 -151 64t-45 129q0 184 220 184q16 0 24 -1l18 134h53l-18 -137l130 -16l-6 -64q-72 8 -132 13l-31 -242q101 -24 142.5 -61.5t41.5 -120.5zM149 517 q0 -56 28 -80t101 -42l30 234h-11q-148 0 -148 -112zM437 197q0 49 -26 73t-91 40l-32 -252h2q147 0 147 139z" />
<glyph unicode="%" d="M161 -4l213 712l50 -16l-213 -711zM143.5 697q114.5 0 114.5 -144q0 -74 -30 -110t-84.5 -36t-84.5 36t-30 110q0 144 114.5 144zM93 553q0 -93 51.5 -93t51.5 93q0 47 -12 69t-40 22t-39.5 -22t-11.5 -69zM326 137q0 143 113.5 143t113.5 -144q0 -73 -30 -109.5 t-84 -36.5t-83.5 36.5t-29.5 110.5zM388 137q0 -94 51 -94q29 0 40.5 22.5t11.5 70.5t-11.5 69.5t-39.5 21.5t-40 -21.5t-12 -68.5z" />
<glyph unicode="&#x26;" horiz-adv-x="715" d="M193.5 687.5q47.5 41.5 135 41.5t132.5 -41.5t45 -115t-36 -115.5t-124 -83l158 -156q23 67 30 169l75 -1q-13 -130 -47 -216l134 -127l-47 -52l-126 117q-72 -118 -217.5 -118t-203.5 56t-58 155.5t38 145.5t123 74q-37 42 -48 74t-11 81q0 70 47.5 111.5zM293 60 q128 0 176 94l-219 218q-69 -22 -98 -56t-29 -106q0 -150 170 -150zM224 564q0 -64 46 -114l31 -29q71 31 99 61.5t28 83.5q0 95 -102 95t-102 -97z" />
<glyph unicode="'" horiz-adv-x="216" d="M73 489l-3 231h78l-6 -231h-69z" />
<glyph unicode="(" horiz-adv-x="274" d="M161 -130q-108 243 -108 443q0 100 27 217t54 183l27 67h75q-36 -96 -67.5 -237t-31.5 -229.5t25 -199.5t50 -177l24 -67h-75z" />
<glyph unicode=")" horiz-adv-x="274" d="M210 448q12 -73 12 -154t-27.5 -191.5t-54.5 -171.5l-27 -61h-75q36 83 67.5 219t31.5 224.5t-24.5 205t-49.5 188.5l-25 73h75q69 -155 97 -332z" />
<glyph unicode="*" horiz-adv-x="436" d="M388 531h-137l42 -130l-51 -15l-42 131l-112 -82l-32 41l112 82l-110 81l32 43l111 -81l42 131l51 -16l-41 -133h135v-52z" />
<glyph unicode="+" d="M57 226v70h197v203h73v-203h198v-70h-198v-205h-73v205h-197z" />
<glyph unicode="," horiz-adv-x="231" d="M35 -128l48 239h87l-70 -239h-65z" />
<glyph unicode="-" horiz-adv-x="455" d="M71 250v72h315v-72h-315z" />
<glyph unicode="." horiz-adv-x="224" d="M70 0v119h85v-119h-85z" />
<glyph unicode="/" horiz-adv-x="428" d="M33 10l294 726l69 -26l-293 -725z" />
<glyph unicode="0" d="M290 698q85 0 138 -32q113 -67 113 -333q0 -188 -62.5 -265.5t-187.5 -77.5t-187.5 76t-62.5 272.5t61.5 278t187.5 81.5zM291 626q-59 0 -93 -25q-74 -51 -74 -269q0 -154 40.5 -213t127 -59t127 59.5t40.5 220t-39 223.5t-129 63z" />
<glyph unicode="1" d="M405 686v-686h-81v597l-176 -117l-37 61l219 145h75z" />
<glyph unicode="2" d="M511 0h-439v68l200 211q52 54 76 82t43.5 66.5t19.5 76.5q0 67 -36.5 94t-113.5 27q-68 0 -151 -18l-27 -5l-6 67q99 28 204 28t158.5 -44.5t53.5 -139.5q0 -73 -32.5 -127t-111.5 -130l-183 -186h345v-70z" />
<glyph unicode="3" d="M75 669q98 29 209.5 29t161.5 -42.5t50 -136.5q0 -48 -13 -69.5t-21 -32.5t-20 -22q-23 -17 -36 -25l-12 -7q60 -22 89.5 -55.5t29.5 -110.5q0 -105 -53.5 -156t-169.5 -51q-91 0 -193 20l-33 8l8 65q112 -23 210 -23q149 1 149 133q0 124 -142 129h-138v69h138 q44 0 84.5 35t40.5 92t-32.5 82.5t-107.5 25.5q-84 0 -165 -16l-27 -5z" />
<glyph unicode="4" d="M374 0v134h-332v63l195 489h87l-198 -481h248v214h80v-214h88v-71h-88v-134h-80z" />
<glyph unicode="5" d="M496 686v-72h-334l-18 -224q80 43 161 43q218 0 218 -203q0 -117 -60.5 -178t-169.5 -61q-87 0 -193 23l-34 7l9 63q119 -23 201 -23t123.5 42.5t41.5 118t-38 107.5t-108 32q-37 0 -78 -10.5t-63 -20.5l-22 -11l-55 11l19 356h400z" />
<glyph unicode="6" d="M501 614q-93 12 -181.5 12t-136.5 -61.5t-48 -175.5l26 10q26 10 69.5 20.5t76.5 10.5q231 0 231 -214q0 -109 -63 -167.5t-178 -58.5q-245 0 -245 356q0 180 70 265.5t198 85.5q85 0 160 -13l29 -5zM302 358q-36 0 -78 -10t-66 -19l-24 -11q1 -118 40 -188t119 -70 t120.5 40t40.5 113.5t-40 109t-112 35.5z" />
<glyph unicode="7" d="M80 614v72h426v-105l-264 -591l-76 24l259 573v27h-345z" />
<glyph unicode="8" d="M289.5 698q114.5 0 181.5 -45.5t67 -133.5q0 -65 -26 -98.5t-89 -61.5q63 -28 94 -66t31 -107q0 -196 -257.5 -196t-257.5 185q0 74 28.5 112.5t90.5 71.5q-56 28 -81.5 64t-25.5 97q0 87 65 132.5t179.5 45.5zM119 188q0 -126 172 -126t172 132q0 56 -31 82.5t-91 43.5 h-109q-57 -15 -85 -46t-28 -86zM452 510q0 115 -161 115t-161 -114q0 -46 25 -74t77 -47h109q56 18 83.5 46t27.5 74z" />
<glyph unicode="9" d="M257 60q188 0 189 240q-104 -40 -179 -40q-224 0 -224 209q0 105 64.5 166.5t173.5 61.5q126 0 187 -93t61 -273.5t-69 -260.5t-203 -80q-78 0 -161 14l-27 4l7 65q94 -13 181 -13zM274 331q63 0 146 28l27 9q-3 258 -166 258q-73 0 -114 -42t-41 -115q0 -138 148 -138z " />
<glyph unicode=":" horiz-adv-x="225" d="M70 335v118h85v-118h-85zM70 0v119h85v-119h-85z" />
<glyph unicode=";" horiz-adv-x="257" d="M97 111h87l-70 -239h-64zM92 335v118h84v-118h-84z" />
<glyph unicode="&#x3c;" d="M496 425l-352 -163l352 -166v-82l-433 213v68l433 211v-81z" />
<glyph unicode="=" d="M67 321v72h449v-72h-449zM67 129v72h449v-72h-449z" />
<glyph unicode="&#x3e;" d="M438 262l-353 163v81l433 -211v-68l-433 -213v82z" />
<glyph unicode="?" horiz-adv-x="464" d="M422 564q0 -68 -18 -103t-73.5 -81t-76.5 -73.5t-21 -61.5v-36h-66q-13 28 -13 63.5t24 66t77 76.5t70.5 73t17.5 75.5t-33 72t-105 23.5q-46 0 -134 -18l-27 -6l-6 64q106 31 174 31q107 0 158.5 -39t51.5 -127zM156 1v117h85v-117h-85z" />
<glyph unicode="@" horiz-adv-x="1016" d="M970 317v-13q0 -221 -69 -278q-25 -20 -50.5 -26t-58.5 -6t-56.5 6t-35.5 16q-25 18 -34 40q-102 -61 -181 -61q-39 0 -67.5 9.5t-57.5 35.5q-58 52 -58 202.5t47 216.5t164 66q44 0 101 -20l18 -7v17h78v-199q0 -182 12 -216q5 -14 15 -25.5t21.5 -13.5t39.5 -2t47 13.5 t32.5 69t13.5 162.5v14q0 193 -85 279t-283.5 86t-294.5 -98t-96 -319t91.5 -314.5t300.5 -93.5l149 10l3 -70q-98 -9 -152 -9q-120 0 -204 23t-145 78q-122 106 -122 381q0 251 119.5 366t351.5 115t339 -106.5t107 -328.5zM490 63q45 0 152 48q-10 56 -10 180v145 q-62 21 -107 21q-84 0 -114 -48t-30 -155q0 -191 109 -191z" />
<glyph unicode="A" horiz-adv-x="619" d="M25 0l198 720h174l198 -720h-79l-52 185h-308l-52 -185h-79zM283 651l-109 -394h272l-109 394h-54z" />
<glyph unicode="B" horiz-adv-x="640" d="M88 720h261q108 0 161.5 -44.5t53.5 -138.5q0 -68 -23.5 -106t-69.5 -60q115 -39 115 -169q0 -108 -57.5 -155t-165.5 -47h-275v720zM355 331h-187v-260h192q71 0 107.5 29.5t36.5 104.5q0 39 -15 66t-40 39q-45 21 -94 21zM346 649h-178v-249h186q66 0 97 32t31 96 t-33 92.5t-103 28.5z" />
<glyph unicode="C" horiz-adv-x="565" d="M523 11q-107 -21 -192.5 -21t-138 23t-81 72.5t-39.5 113.5t-11 159.5t11 160.5t39.5 115t80.5 73t135.5 23t195.5 -23l-3 -67q-105 18 -187 18q-115 0 -151.5 -68t-36.5 -232q0 -82 6.5 -132t26.5 -90t58 -57.5t111 -17.5t173 19z" />
<glyph unicode="D" horiz-adv-x="670" d="M345 0h-257v720h257q176 0 233 -140q34 -80 34 -210q0 -271 -136 -342q-54 -28 -131 -28zM529 370q0 207 -92 258q-38 21 -92 21h-177v-578h177q184 0 184 299z" />
<glyph unicode="E" horiz-adv-x="575" d="M88 0v720h438v-71h-358v-249h296v-69h-296v-260h358v-71h-438z" />
<glyph unicode="F" horiz-adv-x="547" d="M88 0v720h431v-71h-351v-281h297v-71h-297v-297h-80z" />
<glyph unicode="G" horiz-adv-x="640" d="M373 296v72h199v-353q-131 -25 -234 -25q-157 0 -218 90.5t-61 279t61 279.5t216 91q97 0 201 -21l35 -6l-3 -67q-129 22 -224 22q-119 0 -161 -69t-42 -229.5t42 -230t160 -69.5q73 0 149 15v221h-120z" />
<glyph unicode="H" horiz-adv-x="702" d="M535 0v326h-367v-326h-80v720h80v-323h367v323h79v-720h-79z" />
<glyph unicode="I" horiz-adv-x="255" d="M88 0v720h80v-720h-80z" />
<glyph unicode="J" horiz-adv-x="300" d="M19 -75v72q75 0 96 18t21 95v610h79l1 -621q0 -88 -29 -128q-24 -34 -94 -43q-29 -3 -74 -3z" />
<glyph unicode="K" horiz-adv-x="591" d="M168 0h-80v720h80v-335l119 4l184 331h92l-206 -362l217 -358h-95l-191 318l-120 -4v-314z" />
<glyph unicode="L" horiz-adv-x="498" d="M485 0h-397v720h80v-648h317v-72z" />
<glyph unicode="M" horiz-adv-x="873" d="M88 0v720h145l204 -609l204 609h144v-720h-80v634h-14l-209 -608h-90l-209 608h-15v-634h-80z" />
<glyph unicode="N" horiz-adv-x="703" d="M88 0v720h150l276 -649h22v649h79v-720h-147l-280 649h-20v-649h-80z" />
<glyph unicode="O" horiz-adv-x="686" d="M183 129.5q42 -69.5 161 -69.5t160 68t41 227t-42.5 231.5t-159.5 72.5t-159.5 -72t-42.5 -230t42 -227.5zM566.5 76q-61.5 -86 -223 -86t-223 88t-61.5 278t62.5 282t221.5 92t222 -91.5t63 -284t-61.5 -278.5z" />
<glyph unicode="P" horiz-adv-x="616" d="M352 242h-184v-242h-80v720h264q117 0 173 -57.5t56 -174.5q0 -246 -229 -246zM168 313h182q149 0 149 175q0 83 -35.5 122t-113.5 39h-182v-336z" />
<glyph unicode="Q" horiz-adv-x="686" d="M343 -10q-161 0 -222.5 88t-61.5 278t62.5 282t221.5 92t222 -91.5t63 -281.5q0 -132 -27 -211.5t-92 -118.5l88 -142l-75 -36l-91 150q-35 -9 -88 -9zM183 129.5q42 -69.5 161 -69.5t160 67t41 227t-42.5 232.5t-159.5 72.5t-159.5 -72t-42.5 -230t42 -227.5z" />
<glyph unicode="R" horiz-adv-x="640" d="M168 276v-276h-80v720h267q114 0 171.5 -53t57.5 -166q0 -166 -132 -209l139 -292h-89l-130 276h-204zM356 346q146 0 146 151.5t-147 151.5h-187v-303h188z" />
<glyph unicode="S" horiz-adv-x="563" d="M287 660q-156 0 -156 -117q0 -66 36 -90.5t145.5 -48.5t155.5 -63t46 -129q0 -221 -230 -221q-76 0 -190 17l-38 6l8 66q142 -19 216 -19q154 0 154 145q0 58 -34 83.5t-126 43.5q-122 26 -173 67t-51 138q0 193 232 193q76 0 182 -15l35 -6l-7 -67q-145 17 -205 17z" />
<glyph unicode="T" horiz-adv-x="547" d="M14 648v72h520v-72h-220v-648h-79v648h-221z" />
<glyph unicode="U" horiz-adv-x="669" d="M163 216q0 -156 169 -156q87 0 131.5 37t44.5 119v504h79v-502q0 -120 -64 -174t-189 -54t-188 54t-63 174v502h80v-504z" />
<glyph unicode="V" horiz-adv-x="605" d="M497 720h83l-188 -720h-179l-188 720h83l166 -649h58z" />
<glyph unicode="W" horiz-adv-x="921" d="M31 720h83l123 -649h30l147 642h94l146 -642h30l123 649h82l-145 -720h-147l-136 615l-137 -615h-146z" />
<glyph unicode="X" horiz-adv-x="580" d="M110 720l182 -308l183 308h87l-222 -365l222 -355h-91l-181 298l-184 -298h-86l222 353l-222 367h90z" />
<glyph unicode="Y" horiz-adv-x="559" d="M320 0h-80v303l-230 417h91l179 -337l179 337h90l-229 -417v-303z" />
<glyph unicode="Z" horiz-adv-x="557" d="M45 649v71h468v-94l-377 -534v-21h377v-72h-468v93l375 534v23h-375z" />
<glyph unicode="[" horiz-adv-x="342" d="M301 779v-70h-140v-767h140v-70h-219v907h219z" />
<glyph unicode="\" horiz-adv-x="453" d="M421 15l-69 -30l-321 720l70 30z" />
<glyph unicode="]" horiz-adv-x="342" d="M42 709v70h218v-907h-218v70h139v767h-139z" />
<glyph unicode="^" d="M438 332l-149 277l-145 -277h-84l193 354h69l199 -354h-83z" />
<glyph unicode="_" horiz-adv-x="657" d="M106 -96h445v-68h-445v68z" />
<glyph unicode="`" horiz-adv-x="245" d="M26 770l225 -102l-22 -53l-230 88z" />
<glyph unicode="a" horiz-adv-x="521" d="M442 363v-266q3 -39 60 -46l-3 -61q-82 0 -124 41q-93 -41 -187 -41q-72 0 -109 40.5t-37 116.5t38.5 111.5t120.5 44.5l163 15v45q0 53 -23 76t-62 23q-83 0 -173 -11l-32 -3l-3 60q114 22 202.5 22t128.5 -40.5t40 -126.5zM122 151q0 -96 79 -96q70 0 139 24l24 8v172 l-154 -15q-47 -4 -67.5 -27t-20.5 -66z" />
<glyph unicode="b" horiz-adv-x="547" d="M305 530q105 0 147 -59.5t42 -209.5t-52.5 -210.5t-192.5 -60.5q-44 0 -145 8l-29 3v746h77v-253q79 36 153 36zM248 59q101 0 134 46.5t33 156.5t-26 154.5t-93 44.5q-60 0 -123 -23l-21 -7v-367q67 -5 96 -5z" />
<glyph unicode="c" horiz-adv-x="453" d="M269 530q35 0 117 -12l25 -3l-3 -64q-84 10 -123 10q-88 0 -120 -42.5t-32 -156t29.5 -158.5t123.5 -45l123 10l3 -65q-97 -14 -145 -14q-121 0 -167.5 62t-46.5 210.5t50 208t166 59.5z" />
<glyph unicode="d" horiz-adv-x="550" d="M474 747v-747h-77v35q-80 -45 -158 -45q-41 0 -72.5 10t-58.5 37q-56 57 -56 208t50.5 218t166.5 67q61 0 128 -13v230h77zM204 66.5q19 -7.5 48.5 -7.5t66.5 10t57 19l21 10v352q-66 13 -123 13q-80 0 -111 -50.5t-31 -156.5q0 -121 36 -162q17 -20 36 -27.5z" />
<glyph unicode="e" horiz-adv-x="525" d="M428 64l31 4l2 -62q-119 -16 -203 -16q-112 0 -159 65t-47 202q0 273 217 273q105 0 157 -58.5t52 -184.5l-4 -59h-343q0 -87 31 -128.5t108.5 -41.5t157.5 6zM400 290q0 96 -30.5 135.5t-99.5 39.5t-104 -41.5t-36 -133.5h270z" />
<glyph unicode="f" horiz-adv-x="344" d="M175 452v-452h-78v452h-66v68h66v47q0 110 31 150t109 40l105 -7l-1 -65q-58 2 -96 2t-54 -24.5t-16 -96.5v-46h151v-68h-151z" />
<glyph unicode="g" horiz-adv-x="534" d="M276 -244q-125 0 -174.5 33.5t-49.5 123.5q0 42 18.5 68.5t63.5 60.5q-29 19 -29 71q0 18 26 66l9 17q-82 37 -82 157q0 177 195 177q50 0 92 -10l16 -3l154 4v-67l-99 3q34 -35 34 -104q0 -98 -48 -137t-152 -39q-28 0 -51 4q-19 -46 -19 -59q0 -33 19.5 -40.5 t119.5 -7.5t143.5 -31.5t43.5 -121.5q0 -165 -230 -165zM129 -81q0 -55 30.5 -76.5t113.5 -21.5t118.5 23t35.5 76.5t-26 69t-101 15.5l-113 5q-34 -25 -46 -43.5t-12 -47.5zM163.5 265q27.5 -26 91 -26t90.5 26t27 88t-27 88t-90.5 26t-91 -26.5t-27.5 -88t27.5 -87.5z" />
<glyph unicode="h" horiz-adv-x="558" d="M153 0h-78v747h78v-256q83 39 160 39q104 0 140 -56t36 -199v-275h-78v272q0 109 -21.5 149t-89.5 40q-66 0 -127 -24l-20 -7v-430z" />
<glyph unicode="i" horiz-adv-x="227" d="M75 0v520h78v-520h-78zM75 638v90h78v-90h-78z" />
<glyph unicode="j" horiz-adv-x="227" d="M76 14v506h77v-508q0 -95 -34.5 -143t-138.5 -101l-31 60q81 47 104 80t23 106zM76 638v90h77v-90h-77z" />
<glyph unicode="k" horiz-adv-x="498" d="M153 0h-78v747h78v-441l81 4l149 210h88l-169 -239l176 -281h-88l-155 241l-82 -3v-238z" />
<glyph unicode="l" horiz-adv-x="240" d="M81 0v747h78v-747h-78z" />
<glyph unicode="m" horiz-adv-x="869" d="M153 0h-78v520h77v-36q78 46 152 46q96 0 135 -53q34 21 88.5 37t96.5 16q104 0 140 -55.5t36 -199.5v-275h-78v272q0 109 -21 149t-88 40q-35 0 -71.5 -10t-55.5 -19l-20 -10q13 -34 13 -152v-270h-78v268q0 113 -20 153t-89 40q-33 0 -68 -10t-53 -19l-18 -10v-422z " />
<glyph unicode="n" horiz-adv-x="558" d="M153 0h-78v520h77v-36q84 46 161 46q104 0 140 -56t36 -199v-275h-77v272q0 109 -21.5 149t-90.5 40q-34 0 -71 -10t-56 -19l-20 -10v-422z" />
<glyph unicode="o" horiz-adv-x="549" d="M103 467q51 63 172 63t171.5 -63t50.5 -205.5t-48 -207t-174.5 -64.5t-174.5 64.5t-48 207t51 205.5zM159.5 103q27.5 -46 115.5 -46t115 45.5t27 159.5t-30 157.5t-112 43.5t-112.5 -43.5t-30.5 -157t27.5 -159.5z" />
<glyph unicode="p" horiz-adv-x="548" d="M75 -231v751h77v-37q79 47 156 47q99 0 143.5 -62.5t44.5 -207.5t-52.5 -207.5t-174.5 -62.5q-63 0 -116 11v-232h-78zM296 461q-31 0 -67 -10.5t-56 -20.5l-20 -11v-350q74 -12 112 -12q84 0 118 48t34 156t-30.5 154t-90.5 46z" />
<glyph unicode="q" horiz-adv-x="547" d="M248 -10q-106 0 -151 61t-45 208t54 209t191 62l174 -10v-751h-77v255q-73 -34 -146 -34zM298 463q-97 0 -132 -49t-35 -155.5t28.5 -153t96.5 -46.5q60 0 119 23l19 7v368q-64 6 -96 6z" />
<glyph unicode="r" horiz-adv-x="359" d="M75 0v520h77v-71q90 63 190 82v-79q-44 -8 -91 -25.5t-72 -31.5l-26 -13v-382h-78z" />
<glyph unicode="s" horiz-adv-x="483" d="M238 461q-113 0 -113 -79q0 -37 26 -52t118.5 -31t131 -45t38.5 -109.5t-51.5 -117.5t-150.5 -37q-64 0 -152 14l-31 5l4 68q119 -18 179 -18t92 19.5t32 64.5t-27 61t-118.5 31t-130 43t-38.5 104t53.5 112t133.5 36q63 0 159 -14l29 -5l-2 -67q-115 17 -182 17z" />
<glyph unicode="t" horiz-adv-x="365" d="M344 452h-165v-248q0 -90 13 -118t62 -28l92 6l6 -64q-70 -11 -107 -11q-81 0 -112 39.5t-31 150.5v273h-74v68h74v159h77v-159h165v-68z" />
<glyph unicode="u" horiz-adv-x="552" d="M399 520h78v-520h-78v36q-78 -46 -154 -46q-106 0 -140.5 55t-34.5 204v271h78v-270q0 -114 19.5 -152.5t89.5 -38.5q34 0 69.5 10t54.5 19l18 10v422z" />
<glyph unicode="v" horiz-adv-x="500" d="M26 520h83l122 -452h38l126 452h80l-146 -520h-156z" />
<glyph unicode="w" horiz-adv-x="792" d="M32 520h78l105 -452h17l124 442h81l124 -442h17l104 452h78l-124 -520h-130l-110 407l-110 -407h-130z" />
<glyph unicode="x" horiz-adv-x="470" d="M23 520h85l127 -204l127 204h85l-165 -258l164 -262h-85l-126 203l-127 -203h-85l163 260z" />
<glyph unicode="y" horiz-adv-x="502" d="M26 520h78l130 -452h34l131 452h78l-216 -751h-78l68 231h-77z" />
<glyph unicode="z" horiz-adv-x="473" d="M44 450v70h386v-70l-292 -380h292v-70h-386v70l291 380h-291z" />
<glyph unicode="{" horiz-adv-x="366" d="M205 598l7 -128q0 -66 -22.5 -96.5t-86.5 -49.5q63 -18 86 -50t23 -97l-7 -121q0 -58 25.5 -87.5t93.5 -34.5l-2 -67q-105 4 -149 46t-44 136l7 127q0 44 -26 72t-85 44v64q59 13 85 40.5t26 72.5l-7 133q0 96 44 137.5t150 45.5l1 -67q-68 -5 -93.5 -33.5t-25.5 -86.5z " />
<glyph unicode="|" horiz-adv-x="239" d="M81 -231v978h77v-978h-77z" />
<glyph unicode="}" horiz-adv-x="366" d="M161 56l-7 121q0 65 23 97t86 50q-64 19 -86.5 49.5t-22.5 96.5l7 128q0 58 -25.5 86.5t-93.5 33.5l1 67q106 -4 150 -45.5t44 -137.5l-7 -133q0 -45 26 -72.5t85 -40.5v-64q-59 -16 -85 -44t-26 -72l7 -127q0 -94 -44 -136t-149 -46l-2 67q68 5 93.5 34.5t25.5 87.5z " />
<glyph unicode="~" d="M394 203q-28 0 -106.5 32t-97.5 32t-46.5 -12t-44.5 -24l-18 -13l-11 65q64 55 120 55q30 0 107.5 -31.5t97.5 -31.5q37 0 92 35l17 12l11 -63q-66 -56 -121 -56z" />
<glyph unicode="&#xa1;" horiz-adv-x="237" d="M160 520v-116h-85v116h85zM154 283l5 -483h-82l5 483h72z" />
<glyph unicode="&#xa2;" d="M289 -84v121q-97 6 -140.5 54.5t-43.5 164t45.5 169t138.5 59.5v122h68v-126q40 0 88 -9l17 -3l-3 -62q-83 7 -135 7q-76 0 -107 -35t-31 -120t31 -118t114 -33l129 7l3 -63q-63 -9 -106 -11v-124h-68z" />
<glyph unicode="&#xa3;" d="M463 616q-83 11 -131.5 11t-66 -29t-17.5 -112v-52h177v-68h-177v-297h160l80 16l13 -66l-85 -19h-333v69h89v297h-70v68h70v57q0 122 34.5 164t119.5 42q54 0 115 -13l23 -5z" />
<glyph unicode="&#xa5;" d="M59 328v67h146l-181 291h89l179 -280l177 280h89l-177 -291h141v-67h-181l-8 -20v-71h190v-67h-190v-170h-80v170h-193v67h193v71l-9 20h-185z" />
<glyph unicode="&#xa7;" horiz-adv-x="518" d="M435 594q-114 15 -172 15t-88 -22.5t-30 -72.5t31.5 -69.5t120 -36t126.5 -46.5t38 -101.5t-46 -137.5q38 -34 38 -104q0 -175 -198 -175q-67 0 -151 12l-31 6l7 65q113 -15 171 -15q128 0 128 103q0 46 -30.5 62.5t-122 33.5t-132 49t-40.5 105q0 41 22 79.5t38 51.5 q-45 34 -45 116q0 165 199 165q53 0 144 -13l27 -5zM166 368q-34 -57 -34 -97t26 -60t96 -33t102 -26q5 7 15.5 37.5t10.5 68t-26.5 56.5t-94 31t-95.5 23z" />
<glyph unicode="&#xa8;" horiz-adv-x="245" d="M-12 646v93h74v-93h-74zM196 646v93h75v-93h-75z" />
<glyph unicode="&#xa9;" horiz-adv-x="670" d="M139.5 249.5q-78.5 82.5 -78.5 202.5t78 201.5t196.5 81.5t196 -82.5t77.5 -202t-76.5 -201.5t-195.5 -82t-197.5 82.5zM107 451.5q0 -99.5 65 -169t163 -69.5t163.5 69.5t65.5 169t-65.5 169.5t-163 70t-163 -70t-65.5 -169.5zM339 287q-68 0 -95 39t-27 125t27.5 125 t95.5 39q39 0 70 -8l10 -3l-4 -55q-40 6 -75.5 6t-47.5 -23t-12 -79t13 -81.5t49 -25.5l73 8l4 -54q-38 -13 -81 -13z" />
<glyph unicode="&#xaa;" horiz-adv-x="401" d="M314 582v-142q9 -12 31 -18l-2 -51q-39 0 -56 6.5t-30 20.5q-57 -27 -105 -27t-72 26t-24 70q0 83 100 89l92 7v23q0 22 -12.5 31.5t-38.5 9.5l-120 -7l-2 50q72 15 128 15t83.5 -22.5t27.5 -80.5zM125 468q0 -41 37 -41q30 0 73 14l13 4v70l-81 -5q-22 -2 -32 -11.5 t-10 -30.5z" />
<glyph unicode="&#xab;" horiz-adv-x="560" d="M243 358l-129 -98l129 -109v-81l-196 157v62l196 149v-80zM491 358l-130 -98l130 -109v-81l-198 157v62l198 149v-80z" />
<glyph unicode="&#xac;" d="M68 356h445v-234h-73v163h-372v71z" />
<glyph unicode="&#xad;" horiz-adv-x="455" d="M71 250v72h315v-72h-315z" />
<glyph unicode="&#xae;" horiz-adv-x="670" d="M139.5 249.5q-78.5 82.5 -78.5 202.5t78 201.5t196.5 81.5t196 -82t77.5 -202t-76.5 -202t-195.5 -82t-197.5 82.5zM172.5 621q-65.5 -70 -65.5 -169t65.5 -169t163 -70t163 69.5t65.5 169t-65.5 169.5t-163 70t-163 -70zM282 405v-112h-60v315h114q59 0 88.5 -22.5 t29.5 -68.5t-11.5 -68.5t-41.5 -35.5l58 -120h-64l-52 112h-61zM281 560v-107h61q28 0 40.5 12.5t12.5 40.5q0 54 -64 54h-50z" />
<glyph unicode="&#xaf;" horiz-adv-x="245" d="M-15 649v61h286v-61h-286z" />
<glyph unicode="&#xb0;" d="M144 583.5q0 65.5 41 106t106.5 40.5t106.5 -40.5t41 -106t-41 -106t-106.5 -40.5t-106.5 40.5t-41 106zM223 653q-26 -27 -26 -70t26 -69.5t68.5 -26.5t69.5 26.5t27 69.5t-27 70t-69.5 27t-68.5 -27z" />
<glyph unicode="&#xb1;" d="M57 305v70h197v131h73v-131h198v-70h-198v-132h-73v132h-197zM57 110h468v-70h-468v70z" />
<glyph unicode="&#xb4;" horiz-adv-x="278" d="M27 668l225 102l27 -67l-230 -88z" />
<glyph unicode="&#xb5;" d="M417 520h78v-520h-78v36q-78 -46 -146 -46t-106 17v-238h-78v751h78v-270q0 -114 20 -152.5t90 -38.5q34 0 69.5 10t53.5 19l19 10v422z" />
<glyph unicode="&#xb6;" horiz-adv-x="616" d="M427 0v652h-120v-652h-70v337h-7q-84 0 -139 53t-55 137.5t55.5 138.5t139.5 54h342v-68h-75v-652h-71z" />
<glyph unicode="&#xb7;" horiz-adv-x="225" d="M71 238v119h85v-119h-85z" />
<glyph unicode="&#xb8;" horiz-adv-x="273" d="M230 -132q0 -94 -97 -94q-48 0 -77 6l-12 2l3 50q40 -4 68 -4q46 0 46 40q0 35 -46 35h-43v98h42v-52q62 0 89 -16.5t27 -64.5z" />
<glyph unicode="&#xba;" horiz-adv-x="395" d="M91 647.5q36 37.5 107 37.5t106 -37.5t35 -117.5q0 -159 -140 -159q-144 0 -144 159q0 80 36 117.5zM143 457q16 -22 55 -22t54 22t15 73t-15 71.5t-54 20.5t-55 -21t-16 -71.5t16 -72.5z" />
<glyph unicode="&#xbb;" horiz-adv-x="560" d="M446 260l-130 98v80l198 -149v-62l-198 -157v81zM200 260l-130 98v80l196 -149v-62l-196 -157v81z" />
<glyph unicode="&#xbf;" horiz-adv-x="458" d="M40 -43q0 68 18 103t73.5 81t76.5 73.5t21 61.5v36h65q14 -28 14 -63.5t-24 -66t-77 -76.5t-70.5 -73t-17.5 -75t33 -72t105 -24q55 0 134 17l27 7l5 -64q-105 -31 -173 -31q-108 0 -159 39t-51 127zM306 520v-116h-86v116h86z" />
<glyph unicode="&#xc0;" horiz-adv-x="619" d="M25 0l198 720h174l198 -720h-79l-52 185h-308l-52 -185h-79zM283 651l-109 -394h272l-109 394h-54zM197 968l224 -104l-24 -55l-227 91z" />
<glyph unicode="&#xc1;" horiz-adv-x="619" d="M25 0l198 720h174l198 -720h-79l-52 185h-308l-52 -185h-79zM283 651l-109 -394h272l-109 394h-54zM193 864l225 104l27 -68l-228 -91z" />
<glyph unicode="&#xc2;" horiz-adv-x="619" d="M25 0l198 720h174l198 -720h-79l-52 185h-308l-52 -185h-79zM283 651l-109 -394h272l-109 394h-54zM135 823l140 140h67l140 -140h-88l-85 83l-86 -83h-88z" />
<glyph unicode="&#xc3;" horiz-adv-x="619" d="M25 0l198 720h174l198 -720h-79l-52 185h-308l-52 -185h-79zM283 651l-109 -394h272l-109 394h-54zM389 835q-22 0 -86.5 28t-77.5 28q-23 0 -64 -37l-13 -13l-18 59q20 22 47 41t51 19t87.5 -28t73.5 -28q21 0 60 36l13 12l18 -59q-48 -58 -91 -58z" />
<glyph unicode="&#xc4;" horiz-adv-x="619" d="M25 0l198 720h174l198 -720h-79l-52 185h-308l-52 -185h-79zM283 651l-109 -394h272l-109 394h-54zM165 840v94h76v-94h-76zM378 840v94h74v-94h-74z" />
<glyph unicode="&#xc5;" horiz-adv-x="619" d="M397.5 854q34.5 -29 34.5 -77t-30 -79l193 -698h-79l-52 185h-308l-52 -185h-79l191 696q-31 29 -31 79t35 79t89 29t88.5 -29zM283 651l-109 -394h272l-109 394h-54zM244 774q0 -46 45 -54h39q45 8 45 54q0 26 -17 40.5t-47 14.5q-65 0 -65 -55z" />
<glyph unicode="&#xc6;" horiz-adv-x="911" d="M424 0v182h-261l-60 -182h-82l233 724h608v-76h-359v-239h297v-76h-297v-257h359v-76h-438zM312 648l-127 -389h239l1 389h-113z" />
<glyph unicode="&#xc7;" horiz-adv-x="565" d="M450 -132q0 -94 -96 -94q-48 0 -77 6l-13 2l3 50q41 -4 69 -4q46 0 46 40q0 35 -46 35h-44v88q-134 9 -182.5 97t-48.5 270q0 96 11 161t39.5 115t80.5 73t135.5 23t195.5 -23l-3 -67q-105 18 -187 18q-115 0 -151.5 -68t-36.5 -232q0 -82 6.5 -132t26.5 -90t58 -57.5 t111 -17.5t173 19l3 -69q-96 -20 -188 -21v-41q61 0 88 -16.5t27 -64.5z" />
<glyph unicode="&#xc8;" horiz-adv-x="575" d="M88 0v720h438v-71h-358v-249h296v-69h-296v-260h358v-71h-438zM203 968l224 -104l-23 -55l-228 91z" />
<glyph unicode="&#xc9;" horiz-adv-x="575" d="M88 0v720h438v-71h-358v-249h296v-69h-296v-260h358v-71h-438zM183 864l225 104l27 -68l-228 -91z" />
<glyph unicode="&#xca;" horiz-adv-x="575" d="M88 0v720h438v-71h-358v-249h296v-69h-296v-260h358v-71h-438zM132 823l139 140h68l139 -140h-87l-85 83l-87 -83h-87z" />
<glyph unicode="&#xcb;" horiz-adv-x="575" d="M88 0v720h438v-71h-358v-249h296v-69h-296v-260h358v-71h-438zM163 840v94h76v-94h-76zM375 840v94h75v-94h-75z" />
<glyph unicode="&#xcc;" horiz-adv-x="255" d="M88 0v720h80v-720h-80zM6 968l225 -104l-24 -55l-228 91z" />
<glyph unicode="&#xcd;" horiz-adv-x="255" d="M88 0v720h80v-720h-80zM14 864l224 104l27 -68l-228 -91z" />
<glyph unicode="&#xce;" horiz-adv-x="255" d="M88 0v720h80v-720h-80zM-49 823l139 140h68l139 -140h-87l-85 83l-87 -83h-87z" />
<glyph unicode="&#xcf;" horiz-adv-x="255" d="M88 0v720h80v-720h-80zM-16 840v94h76v-94h-76zM197 840v94h74v-94h-74z" />
<glyph unicode="&#xd0;" horiz-adv-x="672" d="M21 323v76h71v325h256q147 0 207 -91.5t60 -259.5q0 -272 -137 -344q-53 -29 -130 -29h-256v323h-71zM531 373q0 202 -92 254q-37 21 -91 21h-177v-249h164v-76h-164v-247h177q183 0 183 297z" />
<glyph unicode="&#xd1;" horiz-adv-x="703" d="M88 0v720h150l276 -649h22v649h79v-720h-147l-280 649h-20v-649h-80zM433 835q-22 0 -86.5 28t-78.5 28q-23 0 -63 -37l-14 -13l-17 59q19 22 46.5 41t51 19t87 -28t74.5 -28q20 0 60 36l12 12l19 -59q-49 -58 -91 -58z" />
<glyph unicode="&#xd2;" horiz-adv-x="686" d="M183 129.5q42 -69.5 161 -69.5t160 68t41 227t-42.5 231.5t-159.5 72.5t-159.5 -72t-42.5 -230t42 -227.5zM566.5 76q-61.5 -86 -223 -86t-223 88t-61.5 278t62.5 282t221.5 92t222 -91.5t63 -284t-61.5 -278.5zM236 968l225 -104l-24 -55l-228 91z" />
<glyph unicode="&#xd3;" horiz-adv-x="686" d="M183 129.5q42 -69.5 161 -69.5t160 68t41 227t-42.5 231.5t-159.5 72.5t-159.5 -72t-42.5 -230t42 -227.5zM566.5 76q-61.5 -86 -223 -86t-223 88t-61.5 278t62.5 282t221.5 92t222 -91.5t63 -284t-61.5 -278.5zM206 864l225 104l27 -68l-228 -91z" />
<glyph unicode="&#xd4;" horiz-adv-x="686" d="M183 129.5q42 -69.5 161 -69.5t160 68t41 227t-42.5 231.5t-159.5 72.5t-159.5 -72t-42.5 -230t42 -227.5zM566.5 76q-61.5 -86 -223 -86t-223 88t-61.5 278t62.5 282t221.5 92t222 -91.5t63 -284t-61.5 -278.5zM171 823l139 140h68l139 -140h-87l-86 83l-86 -83h-87z " />
<glyph unicode="&#xd5;" horiz-adv-x="686" d="M183 129.5q42 -69.5 161 -69.5t160 68t41 227t-42.5 231.5t-159.5 72.5t-159.5 -72t-42.5 -230t42 -227.5zM566.5 76q-61.5 -86 -223 -86t-223 88t-61.5 278t62.5 282t221.5 92t222 -91.5t63 -284t-61.5 -278.5zM424 835q-22 0 -86 28t-78 28q-23 0 -63 -37l-14 -13 l-18 59q20 22 47 41t51 19t87.5 -28t73.5 -28q21 0 61 36l12 12l19 -59q-49 -58 -92 -58z" />
<glyph unicode="&#xd6;" horiz-adv-x="686" d="M183 129.5q42 -69.5 161 -69.5t160 68t41 227t-42.5 231.5t-159.5 72.5t-159.5 -72t-42.5 -230t42 -227.5zM566.5 76q-61.5 -86 -223 -86t-223 88t-61.5 278t62.5 282t221.5 92t222 -91.5t63 -284t-61.5 -278.5zM200 840v94h76v-94h-76zM412 840v94h75v-94h-75z" />
<glyph unicode="&#xd8;" horiz-adv-x="686" d="M343 -10q-72 0 -125 17l-59 -128l-59 27l61 131q-55 42 -78.5 120t-23.5 200q0 189 62.5 281t221.5 92q78 0 131 -22l58 123l61 -25l-62 -132q97 -81 97 -317q0 -195 -61.5 -281t-223.5 -86zM183.5 587q-42.5 -72 -42.5 -243t55 -232l247 528q-39 19 -100 19 q-117 0 -159.5 -72zM343 60q120 0 161 68t41 235t-50 234l-244 -522q35 -15 92 -15z" />
<glyph unicode="&#xd9;" horiz-adv-x="669" d="M163 216q0 -156 169 -156q87 0 131.5 37t44.5 119v504h79v-502q0 -120 -64 -174t-189 -54t-188 54t-63 174v502h80v-504zM231 968l225 -104l-24 -55l-228 91z" />
<glyph unicode="&#xda;" horiz-adv-x="669" d="M163 216q0 -156 169 -156q87 0 131.5 37t44.5 119v504h79v-502q0 -120 -64 -174t-189 -54t-188 54t-63 174v502h80v-504zM207 864l225 104l27 -68l-228 -91z" />
<glyph unicode="&#xdb;" horiz-adv-x="669" d="M163 216q0 -156 169 -156q87 0 131.5 37t44.5 119v504h79v-502q0 -120 -64 -174t-189 -54t-188 54t-63 174v502h80v-504zM161 823l140 140h67l140 -140h-88l-85 83l-86 -83h-88z" />
<glyph unicode="&#xdc;" horiz-adv-x="669" d="M163 216q0 -156 169 -156q87 0 131.5 37t44.5 119v504h79v-502q0 -120 -64 -174t-189 -54t-188 54t-63 174v502h80v-504zM191 840v94h76v-94h-76zM404 840v94h74v-94h-74z" />
<glyph unicode="&#xdd;" horiz-adv-x="559" d="M320 0h-80v303l-230 417h91l179 -337l179 337h90l-229 -417v-303zM174 864l224 104l27 -68l-227 -91z" />
<glyph unicode="&#xde;" horiz-adv-x="622" d="M350 203q150 0 150 172q0 82 -36 118.5t-114 36.5h-182v-327h182zM352 126h-184v-126h-80v724h80v-117h184q117 0 173.5 -57t56.5 -176t-57.5 -183.5t-172.5 -64.5z" />
<glyph unicode="&#xdf;" horiz-adv-x="596" d="M153 0h-78v567q0 105 47.5 147.5t155.5 42.5t155 -35.5t47 -114.5q0 -55 -19.5 -84.5t-61 -47.5t-53.5 -27.5t-12 -25.5t17 -29.5t84.5 -47t96.5 -67t29 -94.5q0 -106 -47.5 -150t-161.5 -44q-52 0 -115 11l-22 4l3 66q89 -12 127 -12q75 0 104.5 27.5t29.5 78 t-21.5 73.5t-89 55.5t-91.5 57t-24 63.5t19 60.5t59.5 39t54 37t13.5 59.5t-26.5 58.5t-95.5 18.5t-96.5 -27t-27.5 -103v-557z" />
<glyph unicode="&#xe0;" horiz-adv-x="521" d="M442 363v-266q3 -39 60 -46l-3 -61q-82 0 -124 41q-93 -41 -187 -41q-72 0 -109 40.5t-37 116.5t38.5 111.5t120.5 44.5l163 15v45q0 53 -23 76t-62 23q-83 0 -173 -11l-32 -3l-3 60q114 22 202.5 22t128.5 -40.5t40 -126.5zM122 151q0 -96 79 -96q70 0 139 24l24 8v172 l-154 -15q-47 -4 -67.5 -27t-20.5 -66zM153 770l225 -102l-22 -53l-230 88z" />
<glyph unicode="&#xe1;" horiz-adv-x="521" d="M442 363v-266q3 -39 60 -46l-3 -61q-82 0 -124 41q-93 -41 -187 -41q-72 0 -109 40.5t-37 116.5t38.5 111.5t120.5 44.5l163 15v45q0 53 -23 76t-62 23q-83 0 -173 -11l-32 -3l-3 60q114 22 202.5 22t128.5 -40.5t40 -126.5zM122 151q0 -96 79 -96q70 0 139 24l24 8v172 l-154 -15q-47 -4 -67.5 -27t-20.5 -66zM123 668l224 102l27 -67l-229 -88z" />
<glyph unicode="&#xe2;" horiz-adv-x="521" d="M442 363v-266q3 -39 60 -46l-3 -61q-82 0 -124 41q-93 -41 -187 -41q-72 0 -109 40.5t-37 116.5t38.5 111.5t120.5 44.5l163 15v45q0 53 -23 76t-62 23q-83 0 -173 -11l-32 -3l-3 60q114 22 202.5 22t128.5 -40.5t40 -126.5zM122 151q0 -96 79 -96q70 0 139 24l24 8v172 l-154 -15q-47 -4 -67.5 -27t-20.5 -66zM99 616l128 145h53l129 -145h-78l-76 90l-78 -90h-78z" />
<glyph unicode="&#xe3;" horiz-adv-x="521" d="M442 363v-266q3 -39 60 -46l-3 -61q-82 0 -124 41q-93 -41 -187 -41q-72 0 -109 40.5t-37 116.5t38.5 111.5t120.5 44.5l163 15v45q0 53 -23 76t-62 23q-83 0 -173 -11l-32 -3l-3 60q114 22 202.5 22t128.5 -40.5t40 -126.5zM122 151q0 -96 79 -96q70 0 139 24l24 8v172 l-154 -15q-47 -4 -67.5 -27t-20.5 -66zM319 636q-22 0 -75.5 24.5t-66.5 24.5q-24 0 -65 -31l-13 -10l-19 50q52 54 95 54q22 0 76 -24t65 -24q23 0 63 30l12 9l18 -49q-48 -54 -90 -54z" />
<glyph unicode="&#xe4;" horiz-adv-x="521" d="M442 363v-266q3 -39 60 -46l-3 -61q-82 0 -124 41q-93 -41 -187 -41q-72 0 -109 40.5t-37 116.5t38.5 111.5t120.5 44.5l163 15v45q0 53 -23 76t-62 23q-83 0 -173 -11l-32 -3l-3 60q114 22 202.5 22t128.5 -40.5t40 -126.5zM122 151q0 -96 79 -96q70 0 139 24l24 8v172 l-154 -15q-47 -4 -67.5 -27t-20.5 -66zM109 646v93h75v-93h-75zM317 646v93h76v-93h-76z" />
<glyph unicode="&#xe5;" horiz-adv-x="521" d="M442 363v-266q3 -39 60 -46l-3 -61q-82 0 -124 41q-93 -41 -187 -41q-72 0 -109 40.5t-37 116.5t38.5 111.5t120.5 44.5l163 15v45q0 53 -23 76t-62 23q-83 0 -173 -11l-32 -3l-3 60q114 22 202.5 22t128.5 -40.5t40 -126.5zM122 151q0 -96 79 -96q70 0 139 24l24 8v172 l-154 -15q-47 -4 -67.5 -27t-20.5 -66zM157 671q0 46 31 77t76.5 31t76.5 -31t31 -77t-30.5 -77t-76.5 -31t-77 31t-31 77zM224.5 712q-16.5 -17 -16.5 -41.5t16.5 -41.5t40.5 -17t40.5 17t16.5 41.5t-16.5 41.5t-40.5 17t-40.5 -17z" />
<glyph unicode="&#xe6;" horiz-adv-x="836" d="M738 68l31 2l2 -64q-118 -16 -211.5 -16t-143.5 56l-33 -15q-91 -41 -200 -41q-70 0 -105.5 41t-35.5 121t42.5 111.5t145.5 42.5l134 12v43q0 95 -90 95q-69 0 -166 -9l-32 -2l-3 70q124 15 205 15q106 0 140 -76q50 76 158.5 76t160.5 -58.5t52 -184.5l-4 -60h-343 q0 -86 31 -126.5t95 -40.5t170 8zM196 57q47 0 108.5 15t77.5 24q-20 53 -20 159l-152 -13q-46 -4 -67 -26t-21 -65q0 -94 74 -94zM442 290h269q0 93 -30.5 132t-99.5 39t-104 -40.5t-35 -130.5z" />
<glyph unicode="&#xe7;" horiz-adv-x="453" d="M374 -132q0 -94 -96 -94q-48 0 -78 6l-12 2l3 50q41 -4 69 -4q46 0 46 40q0 35 -46 35h-44v90q-91 10 -127 73.5t-36 204t50 200t166 59.5q35 0 117 -12l25 -3l-3 -64q-84 10 -123 10q-88 0 -120 -42.5t-32 -156t29.5 -158.5t123.5 -45l123 10l3 -65q-97 -14 -145 -14h-8 v-41q61 0 88 -16.5t27 -64.5z" />
<glyph unicode="&#xe8;" horiz-adv-x="525" d="M428 64l31 4l2 -62q-119 -16 -203 -16q-112 0 -159 65t-47 202q0 273 217 273q105 0 157 -58.5t52 -184.5l-4 -59h-343q0 -87 31 -128.5t108.5 -41.5t157.5 6zM400 290q0 96 -30.5 135.5t-99.5 39.5t-104 -41.5t-36 -133.5h270zM153 771l225 -102l-22 -53l-230 88z" />
<glyph unicode="&#xe9;" horiz-adv-x="525" d="M428 64l31 4l2 -62q-119 -16 -203 -16q-112 0 -159 65t-47 202q0 273 217 273q105 0 157 -58.5t52 -184.5l-4 -59h-343q0 -87 31 -128.5t108.5 -41.5t157.5 6zM400 290q0 96 -30.5 135.5t-99.5 39.5t-104 -41.5t-36 -133.5h270zM151 668l224 102l27 -67l-229 -88z" />
<glyph unicode="&#xea;" horiz-adv-x="525" d="M428 64l31 4l2 -62q-119 -16 -203 -16q-112 0 -159 65t-47 202q0 273 217 273q105 0 157 -58.5t52 -184.5l-4 -59h-343q0 -87 31 -128.5t108.5 -41.5t157.5 6zM400 290q0 96 -30.5 135.5t-99.5 39.5t-104 -41.5t-36 -133.5h270zM116 616l128 145h53l129 -145h-78l-76 90 l-78 -90h-78z" />
<glyph unicode="&#xeb;" horiz-adv-x="525" d="M428 64l31 4l2 -62q-119 -16 -203 -16q-112 0 -159 65t-47 202q0 273 217 273q105 0 157 -58.5t52 -184.5l-4 -59h-343q0 -87 31 -128.5t108.5 -41.5t157.5 6zM400 290q0 96 -30.5 135.5t-99.5 39.5t-104 -41.5t-36 -133.5h270zM125 646v93h75v-93h-75zM333 646v93h76 v-93h-76z" />
<glyph unicode="&#xec;" horiz-adv-x="227" d="M75 0v520h78v-520h-78zM-35 770l224 -102l-22 -53l-229 88z" />
<glyph unicode="&#xed;" horiz-adv-x="227" d="M40 668l224 102l27 -67l-230 -88zM75 520h78v-520h-78v520z" />
<glyph unicode="&#xee;" horiz-adv-x="227" d="M75 520h78v-520h-78v520zM-44 616l128 145h53l129 -145h-78l-76 90l-78 -90h-78z" />
<glyph unicode="&#xef;" horiz-adv-x="227" d="M75 520h78v-520h-78v520zM-32 646v93h75v-93h-75zM176 646v93h76v-93h-76z" />
<glyph unicode="&#xf0;" horiz-adv-x="569" d="M356 669q160 -102 160 -303.5t-56 -288t-184 -86.5q-112 0 -172 59.5t-60 167.5t57 168.5t161 60.5q68 0 146 -28l26 -9q-8 135 -143 215l-127 -84l-34 49l99 66q-56 24 -129 43l15 58q104 -21 180 -56l105 71l36 -49zM435 340q-94 38 -164.5 38t-107.5 -43.5t-37 -116 t38 -115t117.5 -42.5t116 61.5t37.5 217.5z" />
<glyph unicode="&#xf1;" horiz-adv-x="558" d="M75 0v520h77v-36l23 11q24 13 64 24t74 11q104 0 140 -56t36 -199v-275h-77v272q0 109 -21.5 149t-93.5 40t-144 -39v-422h-78zM363 636q-22 0 -75.5 24.5t-67.5 24.5q-23 0 -64 -31l-14 -10l-18 50q52 54 94 54q22 0 76 -24t66 -24q23 0 62 30l13 9l17 -49 q-47 -54 -89 -54z" />
<glyph unicode="&#xf2;" horiz-adv-x="549" d="M103 467q51 63 172 63t171.5 -63t50.5 -205.5t-48 -207t-174.5 -64.5t-174.5 64.5t-48 207t51 205.5zM159.5 103q27.5 -46 115.5 -46t115 45.5t27 159.5t-30 157.5t-112 43.5t-112.5 -43.5t-30.5 -157t27.5 -159.5zM174 770l224 -102l-22 -53l-229 88z" />
<glyph unicode="&#xf3;" horiz-adv-x="549" d="M446.5 467q50.5 -63 50.5 -205.5t-48 -207t-174.5 -64.5t-174.5 64.5t-48 207t51 205.5t172 63t171.5 -63zM390 102.5q27 45.5 27 159.5t-30 157.5t-112 43.5t-112.5 -43.5t-30.5 -157t27.5 -159.5t115.5 -46t115 45.5zM160 668l225 102l27 -67l-230 -88z" />
<glyph unicode="&#xf4;" horiz-adv-x="549" d="M446.5 467q50.5 -63 50.5 -205.5t-48 -207t-174.5 -64.5t-174.5 64.5t-48 207t51 205.5t172 63t171.5 -63zM390 102.5q27 45.5 27 159.5t-30 157.5t-112 43.5t-112.5 -43.5t-30.5 -157t27.5 -159.5t115.5 -46t115 45.5zM118 616l127 145h53l129 -145h-78l-75 90l-78 -90 h-78z" />
<glyph unicode="&#xf5;" horiz-adv-x="549" d="M446.5 467q50.5 -63 50.5 -205.5t-48 -207t-174.5 -64.5t-174.5 64.5t-48 207t51 205.5t172 63t171.5 -63zM390 102.5q27 45.5 27 159.5t-30 157.5t-112 43.5t-112.5 -43.5t-30.5 -157t27.5 -159.5t115.5 -46t115 45.5zM348 636q-21 0 -75 24.5t-67 24.5q-24 0 -65 -31 l-13 -10l-19 50q52 54 95 54q22 0 76 -24t65 -24q23 0 63 30l12 9l18 -49q-48 -54 -90 -54z" />
<glyph unicode="&#xf6;" horiz-adv-x="549" d="M446.5 467q50.5 -63 50.5 -205.5t-48 -207t-174.5 -64.5t-174.5 64.5t-48 207t51 205.5t172 63t171.5 -63zM390 102.5q27 45.5 27 159.5t-30 157.5t-112 43.5t-112.5 -43.5t-30.5 -157t27.5 -159.5t115.5 -46t115 45.5zM130 646v93h75v-93h-75zM338 646v93h76v-93h-76z " />
<glyph unicode="&#xf7;" d="M125 292v76h59v50h214v-50h59v-76h-332zM252 31v105h78v-105h-78z" />
<glyph unicode="&#xf8;" horiz-adv-x="549" d="M275 530q40 0 77 -8l44 108l52 -20l-44 -108q93 -52 93 -236q0 -147 -48 -211.5t-174 -64.5q-43 0 -79 8l-45 -114l-52 18l46 114q-51 28 -72 88t-21 162q0 138 51 201t172 63zM275 463q-82 0 -112.5 -43.5t-30.5 -136.5t9 -135.5t35 -64.5l151 374q-22 6 -52 6zM275 57 q88 0 115 45.5t27 168.5t-44 163l-151 -372q18 -5 53 -5z" />
<glyph unicode="&#xf9;" horiz-adv-x="552" d="M399 520h78v-520h-78v36q-78 -46 -154 -46q-106 0 -140.5 55t-34.5 204v271h78v-270q0 -114 19.5 -152.5t89.5 -38.5q34 0 69.5 10t54.5 19l18 10v422zM146 770l224 -102l-22 -53l-229 88z" />
<glyph unicode="&#xfa;" horiz-adv-x="552" d="M477 520v-520h-78v36l-21 -11q-22 -13 -60.5 -24t-72.5 -11q-106 0 -140.5 55t-34.5 204v271h78v-270q0 -114 19.5 -152.5t93 -38.5t138.5 39v422h78zM161 668l225 102l27 -67l-230 -88z" />
<glyph unicode="&#xfb;" horiz-adv-x="552" d="M477 520v-520h-78v36l-21 -11q-22 -13 -60.5 -24t-72.5 -11q-106 0 -140.5 55t-34.5 204v271h78v-270q0 -114 19.5 -152.5t93 -38.5t138.5 39v422h78zM109 616l128 145h53l129 -145h-78l-76 90l-78 -90h-78z" />
<glyph unicode="&#xfc;" horiz-adv-x="552" d="M477 520v-520h-78v36l-21 -11q-22 -13 -60.5 -24t-72.5 -11q-106 0 -140.5 55t-34.5 204v271h78v-270q0 -114 19.5 -152.5t93 -38.5t138.5 39v422h78zM137 646v93h75v-93h-75zM345 646v93h76v-93h-76z" />
<glyph unicode="&#xfd;" horiz-adv-x="502" d="M26 520h78l130 -452h34l131 452h78l-216 -751h-78l68 231h-77zM160 668l225 102l27 -67l-230 -88z" />
<glyph unicode="&#xfe;" horiz-adv-x="548" d="M254 57q98 0 129.5 47.5t31.5 157t-25.5 154.5t-92.5 45q-60 0 -124 -23l-20 -7v-368q67 -6 101 -6zM305 530q105 0 147.5 -59.5t42.5 -208.5t-51.5 -210.5t-185.5 -61.5l-105 7v-228h-78v978h78v-253q78 36 152 36z" />
<glyph unicode="&#xff;" horiz-adv-x="502" d="M26 520h78l130 -452h34l131 452h78l-216 -751h-78l68 231h-77zM108 646v93h75v-93h-75zM316 646v93h76v-93h-76z" />
<glyph unicode="&#x100;" horiz-adv-x="619" d="M25 0l198 720h174l198 -720h-79l-52 185h-308l-52 -185h-79zM283 651l-109 -394h272l-109 394h-54zM147 844v61h323v-61h-323z" />
<glyph unicode="&#x101;" horiz-adv-x="521" d="M442 363v-266q3 -39 60 -46l-3 -61q-82 0 -124 41q-93 -41 -187 -41q-72 0 -109 40.5t-37 116.5t38.5 111.5t120.5 44.5l163 15v45q0 53 -23 76t-62 23q-83 0 -173 -11l-32 -3l-3 60q114 22 202.5 22t128.5 -40.5t40 -126.5zM122 151q0 -96 79 -96q70 0 139 24l24 8v172 l-154 -15q-47 -4 -67.5 -27t-20.5 -66zM116 649v61h286v-61h-286z" />
<glyph unicode="&#x102;" horiz-adv-x="619" d="M25 0l198 720h174l198 -720h-79l-52 185h-308l-52 -185h-79zM283 651l-109 -394h272l-109 394h-54zM243.5 898.5q26.5 -21.5 64.5 -21.5t64 21.5t27 56.5h73q-3 -62 -47.5 -99.5t-116.5 -37.5t-116 37.5t-47 99.5h71q1 -35 27.5 -56.5z" />
<glyph unicode="&#x103;" horiz-adv-x="523" d="M442 361v-256q1 -41 59 -48l-2 -67q-85 0 -124 39l-26 -10q-26 -10 -73.5 -19.5t-92.5 -9.5q-68 0 -104.5 41.5t-36.5 116.5t38.5 111t120.5 44l163 15v43q0 95 -90 95q-76 0 -199 -14l-3 68l33 5q100 15 173 15q83 0 123.5 -41t40.5 -128zM196 57q78 0 168 31v167 l-154 -13q-88 -8 -88 -91q0 -45 19 -69.5t55 -24.5zM200.5 705.5q22.5 -21.5 62.5 -21.5t62.5 21.5t23.5 56.5h81q-4 -65 -48 -106t-119.5 -41t-119.5 41t-47 106h80q2 -35 24.5 -56.5z" />
<glyph unicode="&#x104;" horiz-adv-x="619" d="M514 -106q0 -20 12 -32.5t30 -12.5l52 6l8 -60q-47 -9 -85.5 -9t-65.5 24.5t-27 61t26 71.5t52 58l-52 184h-308l-52 -185h-79l198 720h174l198 -720h-8q-73 -73 -73 -106zM283 651l-109 -394h272l-109 394h-54z" />
<glyph unicode="&#x105;" horiz-adv-x="520" d="M442 363v-266q3 -39 60 -46l-3 -61q-12 0 -35 2q-64 -67 -64 -98q0 -20 12 -32.5t31 -12.5l52 6l7 -60q-46 -9 -84.5 -9t-66 24.5t-27.5 57.5t20 64q28 45 65 74q-17 9 -34 25q-93 -41 -187 -41q-72 0 -109 40.5t-37 116.5t38.5 111.5t120.5 44.5l163 15v45q0 53 -23 76 t-62 23q-83 0 -173 -11l-32 -3l-3 60q114 22 202.5 22t128.5 -40.5t40 -126.5zM122 151q0 -96 79 -96q70 0 139 24l24 8v172l-154 -15q-47 -4 -67.5 -27t-20.5 -66z" />
<glyph unicode="&#x106;" horiz-adv-x="565" d="M523 11q-107 -21 -192.5 -21t-138 23t-81 72.5t-39.5 113.5t-11 159.5t11 160.5t39.5 115t80.5 73t135.5 23t195.5 -23l-3 -67q-105 18 -187 18q-115 0 -151.5 -68t-36.5 -232q0 -82 6.5 -132t26.5 -90t58 -57.5t111 -17.5t173 19zM188 864l225 104l27 -68l-228 -91z" />
<glyph unicode="&#x107;" horiz-adv-x="453" d="M269 530q35 0 117 -12l25 -3l-3 -64q-84 10 -123 10q-88 0 -120 -42.5t-32 -156t29.5 -158.5t123.5 -45l123 10l3 -65q-97 -14 -145 -14q-121 0 -167.5 62t-46.5 210.5t50 208t166 59.5zM131 668l225 102l27 -67l-230 -88z" />
<glyph unicode="&#x10c;" horiz-adv-x="565" d="M523 11q-107 -21 -192.5 -21t-138 23t-81 72.5t-39.5 113.5t-11 159.5t11 160.5t39.5 115t80.5 73t135.5 23t195.5 -23l-3 -67q-105 18 -187 18q-115 0 -151.5 -68t-36.5 -232q0 -82 6.5 -132t26.5 -90t58 -57.5t111 -17.5t173 19zM282 823l-140 140h88l86 -83l85 83h88 l-140 -140h-67z" />
<glyph unicode="&#x10d;" horiz-adv-x="453" d="M269 530q35 0 117 -12l25 -3l-3 -64q-84 10 -123 10q-88 0 -120 -42.5t-32 -156t29.5 -158.5t123.5 -45l123 10l3 -65q-97 -14 -145 -14q-121 0 -167.5 62t-46.5 210.5t50 208t166 59.5zM223 616l-128 145h77l78 -90l77 90h78l-130 -145h-52z" />
<glyph unicode="&#x10e;" horiz-adv-x="670" d="M345 0h-257v720h257q176 0 233 -140q34 -80 34 -210q0 -271 -136 -342q-54 -28 -131 -28zM529 370q0 207 -92 258q-38 21 -92 21h-177v-578h177q184 0 184 299zM272 823l-139 140h87l87 -83l85 83h87l-139 -140h-68z" />
<glyph unicode="&#x10f;" horiz-adv-x="598" d="M580 710h77l-51 -215h-67zM474 747v-747h-77v35q-80 -45 -158 -45q-41 0 -72.5 10t-58.5 37q-56 57 -56 208t50.5 218t166.5 67q61 0 128 -13v230h77zM204 66.5q19 -7.5 48.5 -7.5t66.5 10t57 19l21 10v352q-66 13 -123 13q-80 0 -111 -50.5t-31 -156.5q0 -121 36 -162 q17 -20 36 -27.5z" />
<glyph unicode="&#x110;" horiz-adv-x="672" d="M21 323v76h71v325h256q147 0 207 -91.5t60 -259.5q0 -272 -137 -344q-53 -29 -130 -29h-256v323h-71zM531 373q0 202 -92 254q-37 21 -91 21h-177v-249h164v-76h-164v-247h177q183 0 183 297z" />
<glyph unicode="&#x111;" horiz-adv-x="550" d="M474 747v-31h24v-69h-24v-647h-77v35q-80 -45 -158 -45q-41 0 -72.5 10t-58.5 37q-56 57 -56 208t50.5 218t166.5 67q61 0 128 -13v130h-201v69h201v31h77zM204 66.5q19 -7.5 48.5 -7.5t66.5 10t57 19l21 10v352q-66 13 -123 13q-80 0 -111 -50.5t-31 -156.5 q0 -121 36 -162q17 -20 36 -27.5z" />
<glyph unicode="&#x112;" horiz-adv-x="575" d="M88 0v720h438v-71h-358v-249h296v-69h-296v-260h358v-71h-438zM144 844v61h323v-61h-323z" />
<glyph unicode="&#x113;" horiz-adv-x="525" d="M428 64l31 4l2 -62q-119 -16 -203 -16q-112 0 -159 65t-47 202q0 273 217 273q105 0 157 -58.5t52 -184.5l-4 -59h-343q0 -87 31 -128.5t108.5 -41.5t157.5 6zM400 290q0 96 -30.5 135.5t-99.5 39.5t-104 -41.5t-36 -133.5h270zM128 649v61h286v-61h-286z" />
<glyph unicode="&#x116;" horiz-adv-x="575" d="M88 0v720h438v-71h-358v-249h296v-69h-296v-260h358v-71h-438zM270 833v91h77v-91h-77z" />
<glyph unicode="&#x117;" horiz-adv-x="525" d="M428 64l31 4l2 -62q-119 -16 -203 -16q-112 0 -159 65t-47 202q0 273 217 273q105 0 157 -58.5t52 -184.5l-4 -59h-343q0 -87 31 -128.5t108.5 -41.5t157.5 6zM400 290q0 96 -30.5 135.5t-99.5 39.5t-104 -41.5t-36 -133.5h270zM226 633v91h77v-91h-77z" />
<glyph unicode="&#x118;" horiz-adv-x="575" d="M88 0v720h438v-71h-358v-249h296v-69h-296v-260h358v-71h-30q-73 -73 -73 -106q0 -20 12 -32.5t31 -12.5l52 6l7 -60q-47 -9 -85.5 -9t-65.5 24.5t-27 61t25.5 71t51.5 57.5h-336z" />
<glyph unicode="&#x119;" horiz-adv-x="526" d="M357 -106q0 -20 12 -32.5t30 -12.5l52 6l8 -60q-47 -9 -85.5 -9t-65.5 24.5t-27 70.5t71 114q-55 -5 -94 -5q-112 0 -159 65t-47 202q0 273 217 273q105 0 157 -58.5t52 -184.5l-4 -59h-343q0 -87 31 -128.5t105 -41.5q81 0 161 6l31 4l2 -62q-17 -2 -37 -5h7 q-74 -73 -74 -107zM400 290q0 96 -30.5 135.5t-99.5 39.5t-104 -41.5t-36 -133.5h270z" />
<glyph unicode="&#x11a;" horiz-adv-x="575" d="M88 0v720h438v-71h-358v-249h296v-69h-296v-260h358v-71h-438zM268 823l-139 140h87l87 -83l85 83h87l-139 -140h-68z" />
<glyph unicode="&#x11b;" horiz-adv-x="525" d="M428 64l31 4l2 -62q-119 -16 -203 -16q-112 0 -159 65t-47 202q0 273 217 273q105 0 157 -58.5t52 -184.5l-4 -59h-343q0 -87 31 -128.5t108.5 -41.5t157.5 6zM400 290q0 96 -30.5 135.5t-99.5 39.5t-104 -41.5t-36 -133.5h270zM236 616l-128 145h77l78 -90l77 90h78 l-130 -145h-52z" />
<glyph unicode="&#x122;" horiz-adv-x="640" d="M373 296v72h199v-353q-131 -25 -234 -25q-157 0 -218 90.5t-61 279t61 279.5t216 91q97 0 201 -21l35 -6l-3 -67q-129 22 -224 22q-119 0 -161 -69t-42 -229.5t42 -230t160 -69.5q73 0 149 15v221h-120zM313 -81h77l-52 -215h-68z" />
<glyph unicode="&#x123;" horiz-adv-x="534" d="M319 828l-42 -215h-77l52 215h67zM276 -244q-125 0 -174.5 33.5t-49.5 123.5q0 42 18.5 68.5t63.5 60.5q-29 19 -29 71q0 18 26 66l9 17q-82 37 -82 157q0 177 195 177q50 0 92 -10l16 -3l154 4v-67l-99 3q34 -35 34 -104q0 -98 -48 -137t-152 -39q-28 0 -51 4 q-19 -46 -19 -59q0 -33 19.5 -40.5t119.5 -7.5t143.5 -31.5t43.5 -121.5q0 -165 -230 -165zM129 -81q0 -55 30.5 -76.5t113.5 -21.5t118.5 23t35.5 76.5t-26 69t-101 15.5l-113 5q-34 -25 -46 -43.5t-12 -47.5zM163.5 265q27.5 -26 91 -26t90.5 26t27 88t-27 88t-90.5 26 t-91 -26.5t-27.5 -88t27.5 -87.5z" />
<glyph unicode="&#x12a;" horiz-adv-x="255" d="M88 0v720h80v-720h-80zM-31 844v61h323v-61h-323z" />
<glyph unicode="&#x12b;" horiz-adv-x="227" d="M75 520h78v-520h-78v520zM-29 649v61h286v-61h-286z" />
<glyph unicode="&#x12e;" horiz-adv-x="255" d="M88 0v720h80v-720q-79 -72 -79 -106q0 -20 12 -32.5t31 -12.5l53 6l7 -60q-46 -9 -84.5 -9t-65.5 24.5t-27 61t25.5 71t51.5 57.5h-4z" />
<glyph unicode="&#x12f;" horiz-adv-x="227" d="M75 0v520h78v-520q-79 -71 -79 -106q0 -20 12 -32.5t30 -12.5l54 6l7 -60q-47 -9 -85.5 -9t-65.5 24.5t-27 65.5q0 55 80 124h-4zM75 638v90h78v-90h-78z" />
<glyph unicode="&#x131;" horiz-adv-x="227" d="M75 0v520h78v-520h-78z" />
<glyph unicode="&#x136;" horiz-adv-x="590" d="M168 0h-80v724h80v-334l118 4l184 330h93l-206 -362l217 -362h-95l-191 318l-120 -4v-314zM275 -81h77l-51 -215h-68z" />
<glyph unicode="&#x137;" horiz-adv-x="498" d="M104 -296l42 215h78l-52 -215h-68zM153 0h-78v747h78v-441l81 4l149 210h88l-169 -239l176 -281h-88l-155 241l-82 -3v-238z" />
<glyph unicode="&#x139;" horiz-adv-x="498" d="M485 0h-397v724h80v-647h317v-77zM139 864l225 104l27 -68l-228 -91z" />
<glyph unicode="&#x13a;" horiz-adv-x="240" d="M81 0v747h78v-747h-78zM54 880l225 102l27 -67l-230 -88z" />
<glyph unicode="&#x13b;" horiz-adv-x="498" d="M251 -81h77l-52 -215h-68zM485 0h-397v720h80v-648h317v-72z" />
<glyph unicode="&#x13c;" horiz-adv-x="240" d="M81 0v747h78v-747h-78zM77 -81h77l-52 -215h-68z" />
<glyph unicode="&#x13d;" horiz-adv-x="513" d="M457 724v-244h-76v244h76zM485 0h-397v720h80v-648h317v-72z" />
<glyph unicode="&#x13e;" horiz-adv-x="280" d="M265 710h77l-51 -215h-68zM81 0v747h78v-747h-78z" />
<glyph unicode="&#x141;" horiz-adv-x="502" d="M490 0h-396v283l-60 -42l-38 54l98 69v356h80v-300l147 103l39 -53l-186 -131v-267h316v-72z" />
<glyph unicode="&#x142;" horiz-adv-x="322" d="M119 0v290l-70 -49l-39 54l109 76v376h78v-322l77 54l38 -54l-115 -81v-344h-78z" />
<glyph unicode="&#x143;" horiz-adv-x="703" d="M88 0v720h150l276 -649h22v649h79v-720h-147l-280 649h-20v-649h-80zM229 864l224 104l27 -68l-227 -91z" />
<glyph unicode="&#x144;" horiz-adv-x="558" d="M75 0v520h77v-36l23 11q24 13 64 24t74 11q104 0 140 -56t36 -199v-275h-77v272q0 109 -21.5 149t-93.5 40t-144 -39v-422h-78zM166 668l225 102l27 -67l-230 -88z" />
<glyph unicode="&#x145;" horiz-adv-x="703" d="M337 -81h77l-52 -215h-68zM88 0v720h150l276 -649h22v649h79v-720h-147l-280 649h-20v-649h-80z" />
<glyph unicode="&#x146;" horiz-adv-x="558" d="M132 -296l43 215h77l-51 -215h-69zM153 0h-78v520h77v-36q84 46 161 46q104 0 140 -56t36 -199v-275h-77v272q0 109 -21.5 149t-90.5 40q-34 0 -71 -10t-56 -19l-20 -10v-422z" />
<glyph unicode="&#x147;" horiz-adv-x="703" d="M88 0v720h150l276 -649h22v649h79v-720h-147l-280 649h-20v-649h-80zM318 820l-139 140h87l87 -83l85 83h87l-139 -140h-68z" />
<glyph unicode="&#x148;" horiz-adv-x="558" d="M153 0h-78v520h77v-36q84 46 161 46q104 0 140 -56t36 -199v-275h-77v272q0 109 -21.5 149t-90.5 40q-34 0 -71 -10t-56 -19l-20 -10v-422zM252 616l-128 145h77l78 -90l77 90h78l-130 -145h-52z" />
<glyph unicode="&#x150;" horiz-adv-x="686" d="M183 129.5q42 -69.5 161 -69.5t160 68t41 227t-42.5 231.5t-159.5 72.5t-159.5 -72t-42.5 -230t42 -227.5zM566.5 76q-61.5 -86 -223 -86t-223 88t-61.5 278t62.5 282t221.5 92t222 -91.5t63 -284t-61.5 -278.5zM362 816l148 137l57 -37l-152 -134zM157 816l148 138 l56 -37l-151 -134z" />
<glyph unicode="&#x151;" horiz-adv-x="549" d="M446.5 467q50.5 -63 50.5 -205.5t-48 -207t-174.5 -64.5t-174.5 64.5t-48 207t51 205.5t172 63t171.5 -63zM390 102.5q27 45.5 27 159.5t-30 157.5t-112 43.5t-112.5 -43.5t-30.5 -157t27.5 -159.5t115.5 -46t115 45.5zM297 649l151 145l56 -45l-154 -144zM97 649 l151 143l56 -43l-153 -144z" />
<glyph unicode="&#x152;" horiz-adv-x="962" d="M913 -1h-429q-96 -9 -149 -9q-159 0 -217.5 87.5t-58.5 282.5t60.5 284.5t215.5 89.5q82 0 147 -10h431v-77h-352v-238h290v-77h-290v-255h352v-78zM345 68q54 0 137 7v572q-110 9 -139 9q-117 0 -159 -67.5t-42 -228t41 -226.5t162 -66z" />
<glyph unicode="&#x153;" horiz-adv-x="891" d="M794 68l30 2l2 -64q-118 -16 -202 -16q-124 0 -168 94q-23 -50 -66 -72t-114 -22q-128 0 -176 64.5t-48 207.5t51.5 205.5t172.5 62.5q70 0 114.5 -25.5t68.5 -83.5q46 109 176 109q105 0 157 -58.5t52 -184.5l-4 -60h-343q0 -86 31.5 -126.5t95.5 -40.5t170 8z M160 105.5q28 -46.5 115 -46.5t114.5 47t27.5 155t-32.5 153.5t-112 45.5t-110 -42.5t-30.5 -154t28 -158zM496 290h270q0 93 -30.5 132t-100.5 39q-139 0 -139 -171z" />
<glyph unicode="&#x154;" horiz-adv-x="640" d="M168 276v-276h-80v720h267q114 0 171.5 -53t57.5 -166q0 -166 -132 -209l139 -292h-89l-130 276h-204zM355 649h-187v-303h188q146 0 146 151.5t-147 151.5zM194 864l225 104l27 -68l-228 -91z" />
<glyph unicode="&#x155;" horiz-adv-x="359" d="M75 0v520h77v-71q90 63 190 82v-79q-44 -8 -91 -25.5t-72 -31.5l-26 -13v-382h-78zM70 668l224 102l27 -67l-229 -88z" />
<glyph unicode="&#x158;" horiz-adv-x="640" d="M168 276v-276h-80v720h267q114 0 171.5 -53t57.5 -166q0 -166 -132 -209l139 -292h-89l-130 276h-204zM356 346q146 0 146 151.5t-147 151.5h-187v-303h188zM279 823l-140 140h88l86 -83l85 83h88l-140 -140h-67z" />
<glyph unicode="&#x159;" horiz-adv-x="359" d="M75 0v520h77v-71q90 63 190 82v-79q-44 -8 -91 -25.5t-72 -31.5l-26 -13v-382h-78zM155 616l-128 145h77l78 -90l77 90h78l-130 -145h-52z" />
<glyph unicode="&#x15a;" horiz-adv-x="563" d="M287 660q-156 0 -156 -117q0 -66 36 -90.5t145.5 -48.5t155.5 -63t46 -129q0 -221 -230 -221q-76 0 -190 17l-38 6l8 66q142 -19 216 -19q154 0 154 145q0 58 -34 83.5t-126 43.5q-122 26 -173 67t-51 138q0 193 232 193q76 0 182 -15l35 -6l-7 -67q-145 17 -205 17z M170 864l224 104l27 -68l-228 -91z" />
<glyph unicode="&#x15b;" horiz-adv-x="483" d="M238 461q-113 0 -113 -79q0 -37 26 -52t118.5 -31t131 -45t38.5 -109.5t-51.5 -117.5t-150.5 -37q-64 0 -152 14l-31 5l4 68q119 -18 179 -18t92 19.5t32 64.5t-27 61t-118.5 31t-130 43t-38.5 104t53.5 112t133.5 36q63 0 159 -14l29 -5l-2 -67q-115 17 -182 17z M119 668l224 102l27 -67l-230 -88z" />
<glyph unicode="&#x15e;" horiz-adv-x="563" d="M426 -132q0 -94 -96 -94q-48 0 -78 6l-12 2l3 50q41 -4 69 -4q46 0 46 40q0 35 -46 35h-44v88q-77 2 -179 17l-33 6l8 66q142 -19 216 -19q154 0 154 145q0 58 -34 83.5t-126 43.5q-122 26 -173 67t-51 138q0 193 232 193q76 0 182 -15l35 -6l-7 -67q-145 17 -205 17 q-156 0 -156 -117q0 -66 36 -90.5t145.5 -48.5t155.5 -63t46 -129q0 -207 -203 -220v-43q61 0 88 -16.5t27 -64.5z" />
<glyph unicode="&#x15f;" horiz-adv-x="483" d="M370 -132q0 -94 -96 -94q-48 0 -78 6l-12 2l3 50q41 -4 69 -4q46 0 46 40q0 35 -46 35h-44v88q-60 2 -133 14l-25 4l4 68q119 -18 179 -18t92 19.5t32 64.5t-27 61t-118.5 31t-130 43t-38.5 104t53.5 112t133.5 36q63 0 159 -14l29 -5l-2 -67q-115 17 -182 17 q-113 0 -113 -79q0 -37 26 -52t118.5 -31t131 -45t38.5 -107.5t-47 -116t-137 -40.5v-41q61 0 88 -16.5t27 -64.5z" />
<glyph unicode="&#x160;" horiz-adv-x="563" d="M287 660q-156 0 -156 -117q0 -66 36 -90.5t145.5 -48.5t155.5 -63t46 -129q0 -221 -230 -221q-76 0 -190 17l-38 6l8 66q142 -19 216 -19q154 0 154 145q0 58 -34 83.5t-126 43.5q-122 26 -173 67t-51 138q0 193 232 193q76 0 182 -15l35 -6l-7 -67q-145 17 -205 17z M260 823l-139 140h87l86 -83l86 83h87l-139 -140h-68z" />
<glyph unicode="&#x161;" horiz-adv-x="483" d="M238 461q-113 0 -113 -79q0 -37 26 -52t118.5 -31t131 -45t38.5 -109.5t-51.5 -117.5t-150.5 -37q-64 0 -152 14l-31 5l4 68q119 -18 179 -18t92 19.5t32 64.5t-27 61t-118.5 31t-130 43t-38.5 104t53.5 112t133.5 36q63 0 159 -14l29 -5l-2 -67q-115 17 -182 17z M225 616l-128 145h77l78 -90l77 90h78l-130 -145h-52z" />
<glyph unicode="&#x162;" horiz-adv-x="0" />
<glyph unicode="&#x163;" horiz-adv-x="365" d="M344 452h-165v-248q0 -90 13 -118t62 -28l92 6l6 -64q-70 -11 -107 -11q-81 0 -112 39.5t-31 150.5v273h-74v68h74v159h77v-159h165v-68zM275 -132q0 -94 -97 -94q-48 0 -78 6l-12 2l4 50q40 -4 68 -4q46 0 46 40q0 35 -46 35h-44v98h43v-52q61 0 88.5 -16.5t27.5 -64.5z " />
<glyph unicode="&#x164;" horiz-adv-x="547" d="M14 648v72h520v-72h-220v-648h-79v648h-221zM240 823l-139 140h87l87 -83l85 83h87l-139 -140h-68z" />
<glyph unicode="&#x165;" horiz-adv-x="449" d="M344 449h-164v-242q0 -89 12.5 -117t62.5 -28l92 6l5 -68q-69 -11 -106 -11q-82 0 -113 40t-31 150v270h-74v71h74v159h78v-159h164v-71zM460 724v-244h-75v244h75z" />
<glyph unicode="&#x16a;" horiz-adv-x="669" d="M163 216q0 -156 169 -156q87 0 131.5 37t44.5 119v504h79v-502q0 -120 -64 -174t-189 -54t-188 54t-63 174v502h80v-504zM175 844v61h323v-61h-323z" />
<glyph unicode="&#x16b;" horiz-adv-x="552" d="M477 520v-520h-78v36l-21 -11q-22 -13 -60.5 -24t-72.5 -11q-106 0 -140.5 55t-34.5 204v271h78v-270q0 -114 19.5 -152.5t93 -38.5t138.5 39v422h78zM131 649v61h286v-61h-286z" />
<glyph unicode="&#x16e;" horiz-adv-x="669" d="M163 216q0 -156 169 -156q87 0 131.5 37t44.5 119v504h79v-502q0 -120 -64 -174t-189 -54t-188 54t-63 174v502h80v-504zM425.5 960q34.5 -29 34.5 -80.5t-34.5 -80.5t-89 -29t-89 29t-34.5 80.5t35 80.5t89 29t88.5 -29zM272 880q0 -26 17.5 -41t47.5 -15t47 15t17 41 t-17 40.5t-47 14.5q-65 0 -65 -55z" />
<glyph unicode="&#x16f;" horiz-adv-x="552" d="M477 520v-520h-78v36l-21 -11q-22 -13 -60.5 -24t-72.5 -11q-106 0 -140.5 55t-34.5 204v271h78v-270q0 -114 19.5 -152.5t93 -38.5t138.5 39v422h78zM167 671q0 46 31.5 77t76.5 31t76.5 -31t31.5 -77t-31 -77t-76.5 -31t-77 31t-31.5 77zM235 712q-17 -17 -17 -41.5 t17 -41.5t41 -17t40.5 17t16.5 41.5t-16.5 41.5t-40.5 17t-41 -17z" />
<glyph unicode="&#x170;" horiz-adv-x="669" d="M163 216q0 -156 169 -156q87 0 131.5 37t44.5 119v504h79v-502q0 -120 -64 -174t-189 -54t-188 54t-63 174v502h80v-504zM366 816l148 137l57 -37l-152 -134zM161 816l148 138l56 -37l-151 -134z" />
<glyph unicode="&#x171;" horiz-adv-x="552" d="M477 520v-520h-78v36l-21 -11q-22 -13 -60.5 -24t-72.5 -11q-106 0 -140.5 55t-34.5 204v271h78v-270q0 -114 19.5 -152.5t93 -38.5t138.5 39v422h78zM313 649l151 145l56 -45l-154 -144zM112 649l151 143l56 -43l-153 -144z" />
<glyph unicode="&#x172;" horiz-adv-x="670" d="M163 216q0 -156 169 -156q87 0 131.5 37t44.5 119v504h79v-502q0 -183 -157 -218l-10 -9q-62 -67 -62 -97q0 -20 12 -32.5t30 -12.5l52 6l8 -60q-47 -9 -85.5 -9t-65.5 24.5t-27 69t65 110.5h-15q-123 0 -186 54t-63 174v502h80v-504z" />
<glyph unicode="&#x173;" horiz-adv-x="552" d="M399 520h78v-520q-26 -20 -53 -54.5t-27 -53t12 -31t31 -12.5l53 6l7 -60q-47 -9 -85.5 -9t-65.5 24.5t-27 61t26.5 71t55.5 57.5h-5v33q-81 -43 -154 -43q-106 0 -140.5 55t-34.5 204v271h78v-270q0 -114 19.5 -152.5t89.5 -38.5q31 0 66.5 10t55.5 19l20 10v422z" />
<glyph unicode="&#x178;" horiz-adv-x="559" d="M320 0h-80v303l-230 417h91l179 -337l179 337h90l-229 -417v-303zM135 840v94h76v-94h-76zM347 840v94h75v-94h-75z" />
<glyph unicode="&#x179;" horiz-adv-x="557" d="M45 649v71h468v-94l-377 -534v-21h377v-72h-468v93l375 534v23h-375zM159 864l225 104l27 -68l-228 -91z" />
<glyph unicode="&#x17a;" horiz-adv-x="473" d="M44 520h386v-70l-292 -380h292v-70h-386v70l291 380h-291v70zM118 668l224 102l27 -67l-230 -88z" />
<glyph unicode="&#x17b;" horiz-adv-x="557" d="M45 649v71h468v-94l-377 -534v-21h377v-72h-468v93l375 534v23h-375zM239 833v91h77v-91h-77z" />
<glyph unicode="&#x17c;" horiz-adv-x="473" d="M44 520h386v-70l-292 -380h292v-70h-386v70l291 380h-291v70zM198 633v91h77v-91h-77z" />
<glyph unicode="&#x17d;" horiz-adv-x="557" d="M45 649v71h468v-94l-377 -534v-21h377v-72h-468v93l375 534v23h-375zM253 823l-140 140h88l86 -83l85 83h88l-140 -140h-67z" />
<glyph unicode="&#x17e;" horiz-adv-x="473" d="M44 450v70h386v-70l-292 -380h292v-70h-386v70l291 380h-291zM213 616l-128 145h77l78 -90l77 90h78l-130 -145h-52z" />
<glyph unicode="&#x192;" d="M292 -57q0 -105 -34.5 -146t-115.5 -41q-39 0 -86 6l-15 2l1 66q62 -5 98.5 -5t55 26.5t18.5 92.5v437h-65v66h65v56q0 102 28.5 158t112.5 56q29 0 87 -8l17 -2l-1 -65q-47 4 -89 4q-77 0 -77 -120v-79h151v-66h-151v-438z" />
<glyph unicode="&#x218;" horiz-adv-x="563" d="M259 -81h77l-51 -215h-68zM287 660q-156 0 -156 -117q0 -66 36 -90.5t145.5 -48.5t155.5 -63t46 -129q0 -221 -230 -221q-76 0 -190 17l-38 6l8 66q142 -19 216 -19q154 0 154 145q0 58 -34 83.5t-126 43.5q-122 26 -173 67t-51 138q0 193 232 193q76 0 182 -15l35 -6 l-7 -67q-145 17 -205 17z" />
<glyph unicode="&#x219;" horiz-adv-x="483" d="M157 -81h78l-52 -215h-68zM238 461q-113 0 -113 -79q0 -37 26 -52t118.5 -31t131 -45t38.5 -109.5t-51.5 -117.5t-150.5 -37q-64 0 -152 14l-31 5l4 68q119 -18 179 -18t92 19.5t32 64.5t-27 61t-118.5 31t-130 43t-38.5 104t53.5 112t133.5 36q63 0 159 -14l29 -5 l-2 -67q-115 17 -182 17z" />
<glyph unicode="&#x21a;" horiz-adv-x="547" d="M256 -81h78l-52 -215h-68zM14 648v72h520v-72h-220v-648h-79v648h-221z" />
<glyph unicode="&#x21b;" horiz-adv-x="365" d="M147 -81h78l-52 -215h-68zM344 452h-165v-248q0 -90 13 -118t62 -28l92 6l6 -64q-70 -11 -107 -11q-81 0 -112 39.5t-31 150.5v273h-74v68h74v159h77v-159h165v-68z" />
<glyph unicode="&#x2c6;" horiz-adv-x="245" d="M-20 616l128 145h53l129 -145h-78l-76 90l-78 -90h-78z" />
<glyph unicode="&#x2c7;" horiz-adv-x="245" d="M110 616l-128 145h77l78 -90l77 90h78l-130 -145h-52z" />
<glyph unicode="&#x2d8;" horiz-adv-x="245" d="M72 692q24 -24 65 -24t65 24t25 63h64q-3 -62 -44.5 -104t-109.5 -42t-110 42t-45 104h64q2 -39 26 -63z" />
<glyph unicode="&#x2d9;" horiz-adv-x="245" d="M84 633v91h77v-91h-77z" />
<glyph unicode="&#x2da;" horiz-adv-x="245" d="M19 671q0 46 31 77t76.5 31t76.5 -31t31 -77t-30.5 -77t-76.5 -31t-77 31t-31 77zM86.5 712q-16.5 -17 -16.5 -41.5t16.5 -41.5t40.5 -17t40.5 17t16.5 41.5t-16.5 41.5t-40.5 17t-40.5 -17z" />
<glyph unicode="&#x2db;" horiz-adv-x="468" d="M271 -106q0 -20 12 -32.5t31 -12.5l52 6l7 -60q-46 -9 -84.5 -9t-65.5 24.5t-27 58.5t21.5 67.5t42.5 53.5l22 18l63 -7q-74 -73 -74 -107z" />
<glyph unicode="&#x2dc;" horiz-adv-x="245" d="M208 636q-22 0 -75.5 24.5t-66.5 24.5q-24 0 -65 -31l-13 -10l-19 50q52 54 94 54q22 0 76 -24t67 -24q22 0 60 30l14 9l17 -49q-47 -54 -89 -54z" />
<glyph unicode="&#x2dd;" horiz-adv-x="245" d="M148 649l150 145l57 -45l-154 -144zM-53 649l151 143l56 -43l-153 -144z" />
<glyph unicode="&#x3c0;" d="M373 160v292h-162l-29 -452h-79l32 452q-56 0 -100 -10l-12 -3v65q61 16 148 16h244q68 0 120 10l16 5v-66q-29 -12 -100 -15v-294q0 -58 18 -77.5t73 -19.5v-67q-103 0 -136 32t-33 132z" />
<glyph unicode="&#x2000;" horiz-adv-x="494" />
<glyph unicode="&#x2001;" horiz-adv-x="989" />
<glyph unicode="&#x2002;" horiz-adv-x="494" />
<glyph unicode="&#x2003;" horiz-adv-x="989" />
<glyph unicode="&#x2004;" horiz-adv-x="329" />
<glyph unicode="&#x2005;" horiz-adv-x="247" />
<glyph unicode="&#x2006;" horiz-adv-x="164" />
<glyph unicode="&#x2007;" horiz-adv-x="164" />
<glyph unicode="&#x2008;" horiz-adv-x="123" />
<glyph unicode="&#x2009;" horiz-adv-x="197" />
<glyph unicode="&#x200a;" horiz-adv-x="54" />
<glyph unicode="&#x2010;" horiz-adv-x="455" d="M71 250v72h315v-72h-315z" />
<glyph unicode="&#x2011;" horiz-adv-x="455" d="M71 250v72h315v-72h-315z" />
<glyph unicode="&#x2012;" horiz-adv-x="455" d="M71 250v72h315v-72h-315z" />
<glyph unicode="&#x2013;" horiz-adv-x="656" d="M69 313h520v-69h-520v69z" />
<glyph unicode="&#x2014;" horiz-adv-x="1176" d="M69 313h1040v-69h-1040v69z" />
<glyph unicode="&#x2018;" horiz-adv-x="227" d="M181 736l-46 -227h-82l67 227h61z" />
<glyph unicode="&#x2019;" horiz-adv-x="224" d="M55 509l46 227h82l-67 -227h-61z" />
<glyph unicode="&#x201a;" horiz-adv-x="226" d="M97 23l-10 -45h-16l13 45h13z" />
<glyph unicode="&#x201c;" horiz-adv-x="387" d="M340 736l-46 -227h-82l67 227h61zM181 736l-46 -227h-82l67 227h61z" />
<glyph unicode="&#x201d;" horiz-adv-x="392" d="M55 510l46 227h82l-67 -227h-61zM222 510l45 227h82l-66 -227h-61z" />
<glyph unicode="&#x201e;" horiz-adv-x="373" d="M151 116l-46 -227h-82l66 227h62zM309 116l-46 -227h-82l67 227h61z" />
<glyph unicode="&#x2020;" horiz-adv-x="497" d="M35 451v69h175v200h77v-200h175v-69h-175l-4 -530h-69l-4 530h-175z" />
<glyph unicode="&#x2021;" horiz-adv-x="541" d="M232 -79v200h-175v67h175v263h-175v69h175v200h78v-200h174v-69h-174v-263h175v-67h-175v-200h-78z" />
<glyph unicode="&#x2022;" horiz-adv-x="491" d="M115 110v298h260v-298h-260z" />
<glyph unicode="&#x2026;" horiz-adv-x="754" d="M70 0v119h85v-119h-85zM335 0v119h84v-119h-84zM599 0v119h85v-119h-85z" />
<glyph unicode="&#x202f;" horiz-adv-x="197" />
<glyph unicode="&#x2030;" horiz-adv-x="868" d="M154 644q-28 0 -40 -22t-12 -69q0 -93 52 -93q28 0 39.5 22.5t11.5 70.5t-11.5 69.5t-39.5 21.5zM172 -4l213 712l50 -16l-215 -711zM154 697q114 0 114 -144q0 -74 -30 -110t-84 -36q-114 0 -114 145t114 145zM335 137q0 143 114.5 143t114.5 -144q0 -73 -30.5 -109.5 t-84.5 -36.5t-84 36.5t-30 110.5zM397 137q0 -94 52 -94t52 93q0 47 -12 69t-40 22t-40 -21.5t-12 -68.5zM603 137q0 143 114 143t114 -144q0 -73 -30 -109.5t-83.5 -36.5t-84 36.5t-30.5 110.5zM666 137q0 -94 52 -94q28 0 39.5 22.5t11.5 70.5t-11.5 69.5t-39.5 21.5 t-40 -21.5t-12 -68.5z" />
<glyph unicode="&#x2039;" horiz-adv-x="313" d="M243 358l-129 -98l129 -109v-81l-196 157v62l196 149v-80z" />
<glyph unicode="&#x203a;" horiz-adv-x="313" d="M199 264l-129 98v80l196 -149v-62l-196 -157v81z" />
<glyph unicode="&#x2044;" horiz-adv-x="0" d="M-233 29l408 657l41 -27l-408 -656z" />
<glyph unicode="&#x205f;" horiz-adv-x="247" />
<glyph unicode="&#x20ac;" d="M31 393v64h67q12 123 68 181.5t178 58.5q88 0 190 -22l-4 -65q-94 18 -179.5 18t-124.5 -40.5t-48 -130.5h297v-64h-301q-1 -17 -1 -52v-47h302v-63h-298q9 -91 48 -132t125.5 -41t179.5 19l4 -66q-103 -21 -190 -21q-122 0 -178 59t-69 182h-66v63h63q-1 15 -1 48.5 t1 50.5h-63z" />
<glyph unicode="&#x2122;" horiz-adv-x="704" d="M95 603v52h208v-52h-69v-258h-57v258h-82zM335 344v311h75l68 -216l74 216h73v-311h-54v233l-69 -217h-44l-69 217v-233h-54z" />
<glyph unicode="&#x2202;" d="M277 757q125 0 184 -90.5t59 -289t-57 -292.5t-176 -94t-179 59.5t-60 168.5t58 168.5t160 59.5q75 0 147 -23l24 -8q-4 147 -42.5 209.5t-131.5 62.5q-33 0 -74 -11t-66 -24l-24 -11l-4 63q31 19 85.5 35.5t96.5 16.5zM438 347q-83 32 -158 32t-112.5 -43t-37.5 -117.5 t38 -117t116 -42.5t115.5 70.5t38.5 217.5z" />
<glyph unicode="&#x2206;" d="M526 0h-471v59l165 627h141l165 -628v-58zM304 619h-27l-142 -550h310z" />
<glyph unicode="&#x220f;" d="M397 -170v883h-214v-883h-79v883h-73v71h520v-71h-74v-883h-80z" />
<glyph unicode="&#x2211;" d="M46 783h489v-71h-406v-22l267 -343v-57l-267 -362v-26h406v-72h-489v106l277 384l-277 360v103z" />
<glyph unicode="&#x221a;" d="M4 393v71h127l133 -538h11l236 882h79l-258 -949h-127l-139 534h-62z" />
<glyph unicode="&#x221e;" d="M161 126q-130 0 -130 178q0 86 32.5 132t95.5 46q47 0 77.5 -27.5t54.5 -83.5q24 56 54 83.5t78 27.5q64 0 96 -46t32 -132q0 -178 -130 -178q-46 0 -76 26.5t-54 81.5q-24 -61 -52 -84.5t-78 -23.5zM168 412q-62 0 -62 -108t62 -108q36 0 52 20.5t28 49.5t12 31q2 5 3 7 q-26 63 -43 83q-17 19 -28.5 22t-23.5 3zM414 196q62 0 62 108t-62 108q-24 0 -35.5 -10t-16.5 -15.5t-12.5 -18.5t-10.5 -20q-9 -18 -20 -44q26 -64 43 -84q18 -18 29 -21t23 -3z" />
<glyph unicode="&#x222b;" d="M329 -6q0 -104 -35 -146t-107 -42l-91 8l3 66q40 -4 77.5 -4t55.5 26t18 93v604q0 118 33.5 165t107.5 47q45 0 81 -6l15 -3l-3 -67q-40 5 -79 5t-57.5 -31.5t-18.5 -110.5v-604z" />
<glyph unicode="&#x2248;" d="M394 281q-28 0 -107 32t-99 32q-37 0 -91 -37l-18 -12l-12 65q65 55 121 55q31 0 109 -31.5t98 -31.5q37 0 92 36l17 11l11 -63q-66 -56 -121 -56zM394 88q-28 0 -107 32.5t-99 32.5t-47 -12t-44 -25l-18 -12l-12 64q65 56 121 56q31 0 109 -32t98 -32q37 0 92 36l17 12 l11 -63q-66 -57 -121 -57z" />
<glyph unicode="&#x2260;" d="M67 321v72h249l71 161l62 -25l-60 -136h127v-72h-158l-52 -120h210v-72h-241l-69 -158l-64 25l59 133h-134v72h165l53 120h-218z" />
<glyph unicode="&#x2264;" d="M508 439l-349 -106l349 -115v-79l-440 156v71l440 151v-78zM68 23v71h440v-71h-440z" />
<glyph unicode="&#x2265;" d="M422 333l-348 106v78l440 -151v-71l-440 -156v79zM514 94v-71h-440v71h440z" />
<glyph unicode="&#x25ca;" d="M445 342l-104 70h11l174 -70l-174 -67h-10zM56 342l175 70h9l-103 -70l102 -67h-8zM303 249h-24l-40 26h103zM240 412l39 26h24l38 -26h-101z" />
<glyph unicode="&#x25fc;" horiz-adv-x="520" d="M0 520h520v-520h-520v520z" />
</font>
</defs>
</svg>
